<svg width="70" height="70" viewBox="0 0 70 70" fill="none" xmlns="http://www.w3.org/2000/svg">
<path d="M20.5 41.5C20.5 49.7843 16.9183 56.5 12.5 56.5H57.5C61.3703 56.5 64.5987 51.3467 65.34 44.5C65.4449 43.5307 65.5 42.5274 65.5 41.5C65.5 37.6582 64.7297 34.1538 63.463 31.5C61.9981 28.4313 59.8693 26.5 57.5 26.5L12.5 26.5C15.3497 26.5 17.8513 29.2937 19.2685 33.5C20.0485 35.8154 20.5 38.5588 20.5 41.5Z" fill="#F5E2CE"/>
<path d="M12.5 56.5C16.9183 56.5 20.5 49.7843 20.5 41.5C20.5 38.5588 20.0485 35.8154 19.2685 33.5M12.5 56.5C8.08172 56.5 4.5 49.7843 4.5 41.5C4.5 33.2157 8.08172 26.5 12.5 26.5M12.5 56.5H57.5C61.3703 56.5 64.5987 51.3467 65.34 44.5M12.5 26.5H57.5C59.8693 26.5 61.9981 28.4313 63.463 31.5M12.5 26.5C15.3497 26.5 17.8513 29.2937 19.2685 33.5M40.5 33.5H19.2685M53.5 31.5H63.463M63.463 31.5C64.7297 34.1538 65.5 37.6582 65.5 41.5C65.5 42.5274 65.4449 43.5307 65.34 44.5M42.5 44.5H65.34M28.5 51.5H18.5M29.5 40.5H32.5M37.5 40.5H42.5M45.5 52.5H50.5M43.5 17.5C43.5 10 47 6.5 54.5 6.5C54.5 14 51 17.5 43.5 17.5ZM43.5 17.5C43.5 12.7273 41.2727 10.5 36.5 10.5C36.5 15.2727 38.7273 17.5 43.5 17.5ZM43.5 17.5V26.5" stroke="#777676" stroke-linecap="round" stroke-linejoin="round"/>
</svg>
