<svg width="70" height="70" viewBox="0 0 70 70" fill="none" xmlns="http://www.w3.org/2000/svg">
<path d="M11.5 47.5L22.5 58.5L57.5 23.5L46.5 12.5L11.5 47.5Z" fill="#FEEA84" stroke="#777676" stroke-linecap="round" stroke-linejoin="round"/>
<path d="M22.5 58.5L11.5 47.5M22.5 58.5L7.47171 63.8041C6.67932 64.0838 5.91623 63.3207 6.1959 62.5283L11.5 47.5M22.5 58.5L57.5 23.5M11.5 47.5L46.5 12.5M46.5 12.5L57.5 23.5M46.5 12.5L52.8787 6.12132C54.0503 4.94975 55.9497 4.94975 57.1213 6.12132L63.8787 12.8787C65.0503 14.0503 65.0503 15.9497 63.8787 17.1213L57.5 23.5M26 12L19.5 5.5H18.5L5.5 18.5V19.5L22.5 36.5M26 12L19 19M26 12L32 18M32 18L28 22M32 18L36.5 22.5M58 44L64.5 50.5V51.5L51.5 64.5H50.5L33.5 47.5M58 44L51 51M58 44L52 38M52 38L48 42M52 38L47.5 33.5" stroke="#777676" stroke-linecap="round" stroke-linejoin="round"/>
</svg>
