<svg width="73" height="73" viewBox="0 0 73 73" fill="none" xmlns="http://www.w3.org/2000/svg"><mask id="a" fill="#fff"><path fill-rule="evenodd" clip-rule="evenodd" d="M16.554 28.605c.474-.46 1.142-.605 1.852-.605h4.176c.647 0 1.272.124 1.8.56.492.405.768.977.981 1.536.996 2.596 2.323 5.03 3.56 6.8.62.888 1.2 1.583 1.684 2.044.173.164.322.288.447.377.003-.074.005-.158.005-.254v-5.49c-.07-1.016-.385-1.507-.662-1.852a7.942 7.942 0 0 0-.242-.283l-.014-.015a5.96 5.96 0 0 1-.292-.35c-.204-.27-.437-.665-.437-1.201 0-1.08.946-1.872 2.044-1.872h6.506c.592 0 1.241.148 1.7.693.42.502.505 1.144.505 1.688v7.377c.198-.134.468-.356.877-.725 1.394-1.42 2.613-3.245 3.494-4.747a36.208 36.208 0 0 0 1.3-2.424l.068-.144.017-.035.003-.008.001-.001.01-.022.01-.02c.189-.366.476-.78.943-1.1.475-.324 1.06-.496 1.753-.496h4.137c.718 0 1.503.159 1.983.777.487.625.395 1.365.221 1.887-.18.706-.663 1.616-1.194 2.502a50.885 50.885 0 0 1-1.929 2.93 109.07 109.07 0 0 1-2.248 3.082l-.124.166c-.065.087-.113.15-.144.194l-.033.049c-.096.14-.154.23-.192.297.027.041.069.099.133.176l.007.008c.155.192.542.54 1.117 1.05.528.468 1.162 1.032 1.678 1.576.885.91 1.691 1.769 2.326 2.542.617.753 1.15 1.514 1.392 2.222l.006.016.005.017c.218.714.212 1.54-.377 2.17-.533.569-1.321.72-2.025.72h-4.136a3.276 3.276 0 0 1-1.458-.32c-.437-.21-.816-.51-1.178-.84-.288-.262-.603-.58-.949-.929l-.258-.26c-.457-.459-1-.993-1.68-1.61-2.414-2.11-3.257-2.18-3.472-2.18h-.077a4.134 4.134 0 0 0-.008.27v3.38c0 .27-.02.625-.163.98a1.922 1.922 0 0 1-.81.941c-.673.41-1.676.531-2.998.531-4.727 0-9.863-2.574-13.44-7.253-2.615-3.329-4.292-6.264-5.32-8.512a22.728 22.728 0 0 1-1.092-2.832c-.217-.719-.343-1.33-.343-1.73 0-.37.064-.97.554-1.448zm31.18 1.927l-.017.035a29.496 29.496 0 0 1-.369.75c-.253.497-.621 1.19-1.085 1.981-.92 1.57-2.244 3.566-3.814 5.16l-.02.02-.022.019c-.91.823-1.63 1.42-2.598 1.42-1.104 0-1.642-1.055-1.642-2.09v-7.446c0-.185-.017-.301-.034-.37a1.048 1.048 0 0 0-.171-.011h-6.409a12.147 12.147 0 0 0 .106.12 9.9 9.9 0 0 1 .295.346c.502.623 1.008 1.506 1.103 3.012l.002.032v5.553c0 .594-.046 1.212-.334 1.681-.171.28-.415.488-.712.609-.269.11-.53.127-.717.127-.435 0-.826-.173-1.128-.354a5.49 5.49 0 0 1-.94-.737c-.614-.585-1.28-1.396-1.944-2.347-1.333-1.907-2.736-4.486-3.789-7.23v-.003c-.189-.493-.314-.648-.385-.706-.033-.028-.131-.103-.528-.103h-4.177c-.2 0-.328.018-.405.037v.017c0 .09.05.465.257 1.152.198.655.517 1.527.998 2.578.96 2.102 2.555 4.904 5.077 8.112l.008.011c3.25 4.254 7.83 6.473 11.855 6.473 1.318 0 1.804-.148 1.957-.239a1.4 1.4 0 0 0 .014-.214V44.55c0-.299.016-.594.073-.864a1.77 1.77 0 0 1 .415-.855c.494-.542 1.206-.553 1.597-.553.99 0 2.314.51 4.794 2.682l.007.005.006.006c.72.652 1.291 1.215 1.762 1.687l.28.282c.341.344.61.615.857.84.305.277.516.428.697.515.163.078.337.123.592.123h4.136c.23 0 .387-.027.482-.057a.55.55 0 0 0 .052-.019.894.894 0 0 0-.04-.214c-.123-.347-.453-.87-1.041-1.586-.58-.706-1.338-1.516-2.218-2.421l-.01-.01h.001c-.447-.471-1.015-.978-1.56-1.461l-.08-.072c-.476-.422-.986-.874-1.258-1.209-.344-.415-.668-.931-.615-1.578.043-.527.344-.97.528-1.241l.008-.012.037-.057.057-.08a25.178 25.178 0 0 1 .29-.389l.441-.59a107.13 107.13 0 0 0 1.768-2.438 48.84 48.84 0 0 0 1.85-2.81c.552-.92.888-1.612.978-1.99l.012-.05.017-.048.01-.028a2.015 2.015 0 0 0-.311-.02h-4.137c-.35 0-.529.082-.626.148a.917.917 0 0 0-.283.347z"/></mask><path fill-rule="evenodd" clip-rule="evenodd" d="M16.554 28.605c.474-.46 1.142-.605 1.852-.605h4.176c.647 0 1.272.124 1.8.56.492.405.768.977.981 1.536.996 2.596 2.323 5.03 3.56 6.8.62.888 1.2 1.583 1.684 2.044.173.164.322.288.447.377.003-.074.005-.158.005-.254v-5.49c-.07-1.016-.385-1.507-.662-1.852a7.942 7.942 0 0 0-.242-.283l-.014-.015a5.96 5.96 0 0 1-.292-.35c-.204-.27-.437-.665-.437-1.201 0-1.08.946-1.872 2.044-1.872h6.506c.592 0 1.241.148 1.7.693.42.502.505 1.144.505 1.688v7.377c.198-.134.468-.356.877-.725 1.394-1.42 2.613-3.245 3.494-4.747a36.208 36.208 0 0 0 1.3-2.424l.068-.144.017-.035.003-.008.001-.001.01-.022.01-.02c.189-.366.476-.78.943-1.1.475-.324 1.06-.496 1.753-.496h4.137c.718 0 1.503.159 1.983.777.487.625.395 1.365.221 1.887-.18.706-.663 1.616-1.194 2.502a50.885 50.885 0 0 1-1.929 2.93 109.07 109.07 0 0 1-2.248 3.082l-.124.166c-.065.087-.113.15-.144.194l-.033.049c-.096.14-.154.23-.192.297.027.041.069.099.133.176l.007.008c.155.192.542.54 1.117 1.05.528.468 1.162 1.032 1.678 1.576.885.91 1.691 1.769 2.326 2.542.617.753 1.15 1.514 1.392 2.222l.006.016.005.017c.218.714.212 1.54-.377 2.17-.533.569-1.321.72-2.025.72h-4.136a3.276 3.276 0 0 1-1.458-.32c-.437-.21-.816-.51-1.178-.84-.288-.262-.603-.58-.949-.929l-.258-.26c-.457-.459-1-.993-1.68-1.61-2.414-2.11-3.257-2.18-3.472-2.18h-.077a4.134 4.134 0 0 0-.008.27v3.38c0 .27-.02.625-.163.98a1.922 1.922 0 0 1-.81.941c-.673.41-1.676.531-2.998.531-4.727 0-9.863-2.574-13.44-7.253-2.615-3.329-4.292-6.264-5.32-8.512a22.728 22.728 0 0 1-1.092-2.832c-.217-.719-.343-1.33-.343-1.73 0-.37.064-.97.554-1.448zm31.18 1.927l-.017.035a29.496 29.496 0 0 1-.369.75c-.253.497-.621 1.19-1.085 1.981-.92 1.57-2.244 3.566-3.814 5.16l-.02.02-.022.019c-.91.823-1.63 1.42-2.598 1.42-1.104 0-1.642-1.055-1.642-2.09v-7.446c0-.185-.017-.301-.034-.37a1.048 1.048 0 0 0-.171-.011h-6.409a12.147 12.147 0 0 0 .106.12 9.9 9.9 0 0 1 .295.346c.502.623 1.008 1.506 1.103 3.012l.002.032v5.553c0 .594-.046 1.212-.334 1.681-.171.28-.415.488-.712.609-.269.11-.53.127-.717.127-.435 0-.826-.173-1.128-.354a5.49 5.49 0 0 1-.94-.737c-.614-.585-1.28-1.396-1.944-2.347-1.333-1.907-2.736-4.486-3.789-7.23v-.003c-.189-.493-.314-.648-.385-.706-.033-.028-.131-.103-.528-.103h-4.177c-.2 0-.328.018-.405.037v.017c0 .09.05.465.257 1.152.198.655.517 1.527.998 2.578.96 2.102 2.555 4.904 5.077 8.112l.008.011c3.25 4.254 7.83 6.473 11.855 6.473 1.318 0 1.804-.148 1.957-.239a1.4 1.4 0 0 0 .014-.214V44.55c0-.299.016-.594.073-.864a1.77 1.77 0 0 1 .415-.855c.494-.542 1.206-.553 1.597-.553.99 0 2.314.51 4.794 2.682l.007.005.006.006c.72.652 1.291 1.215 1.762 1.687l.28.282c.341.344.61.615.857.84.305.277.516.428.697.515.163.078.337.123.592.123h4.136c.23 0 .387-.027.482-.057a.55.55 0 0 0 .052-.019.894.894 0 0 0-.04-.214c-.123-.347-.453-.87-1.041-1.586-.58-.706-1.338-1.516-2.218-2.421l-.01-.01h.001c-.447-.471-1.015-.978-1.56-1.461l-.08-.072c-.476-.422-.986-.874-1.258-1.209-.344-.415-.668-.931-.615-1.578.043-.527.344-.97.528-1.241l.008-.012.037-.057.057-.08a25.178 25.178 0 0 1 .29-.389l.441-.59a107.13 107.13 0 0 0 1.768-2.438 48.84 48.84 0 0 0 1.85-2.81c.552-.92.888-1.612.978-1.99l.012-.05.017-.048.01-.028a2.015 2.015 0 0 0-.311-.02h-4.137c-.35 0-.529.082-.626.148a.917.917 0 0 0-.283.347z" fill="#525F6B"/><path d="M16.554 28.605l-.697-.716.697.716zm7.828-.045l.636-.772-.636.772zm.981 1.536l-.934.357v.001l.934-.358zm3.56 6.8l.82-.572-.82.572zm1.684 2.044l-.69.724.69-.724zm.447.377l-.583.813 1.505 1.078.077-1.85-1-.041zm.005-5.743h1v-.034l-.003-.035-.997.069zm-.662-1.853l-.779.627.779-.627zm-.242-.283l-.75.662.75-.662zm-.014-.015l-.75.662.75-.662zm-.292-.35l-.798.603.798-.603zm9.812-2.38l.766-.643-.766.643zm.505 9.065h-1v1.881l1.56-1.052-.56-.83zm.878-.725l.67.742.023-.02.02-.022-.713-.7zm3.494-4.747l.863.506-.863-.506zm1.028-1.876l-.89-.454.89.454zm.272-.548l-.901-.433.901.433zm.068-.144l.906.425v-.002l-.906-.423zm.017-.035l.906.423.002-.004-.908-.419zm.003-.008l.908.42.001-.002-.909-.418zm.001-.001l-.908-.42v.002l.908.418zm0 0l-.908-.42.908.42zm0 0l.908.419.003-.008-.91-.412zm0 0l-.909-.417-.002.004.911.412zm.01-.022l-.889-.458-.01.02-.01.022.909.416zm.01-.02l-.888-.459.889.458zm.943-1.1l-.564-.825.564.826zm7.873.28l-.789.615.79-.614zm.221 1.888l-.948-.316-.011.033-.01.034.97.249zm-1.194 2.502l-.857-.515.857.515zm-1.929 2.93l-.818-.575.818.575zm-1.8 2.484l.801.597-.802-.597zm-.448.598l.8.6-.8-.6zm-.124.166l.8.6-.8-.6zm-.144.194l-.807-.591-.011.015-.01.016.828.56zm-.033.049l.828.56-.828-.56zm-.192.297l-.87-.493-.301.531.335.51.836-.548zm.133.176l-.77.638.77-.638zm.007.008l.61.793.822-.633-.663-.798-.77.638zm0 0l-.61-.792-.813.625.646.797.777-.63zm1.117 1.05l-.664.747.663-.748zm1.678 1.576l-.725.688.008.01.717-.698zm2.326 2.542l-.773.634.773-.634zm1.392 2.222l.946-.325-.946.325zm.006.016l.956-.292-.005-.016-.005-.016-.946.324zm.005.017l.957-.292-.957.291zm-.377 2.17l-.73-.684.73.683zm-7.62.4l-.432.9.433-.9zm-1.178-.84l-.673.739.673-.74zm-.948-.929l.71-.704-.71.704zm-.258-.26l-.708.707.708-.706zm-1.68-1.61l.67-.741-.006-.006-.007-.005-.658.752zm-3.549-2.18l-.019-1-.918.017-.06.916.997.067zm-.17 4.63l-.93-.37.93.37zm-.81.941l.518.855-.519-.855zm-16.439-6.722l.795-.608-.009-.01-.786.618zm-5.32-8.512l-.909.416.91-.416zm-1.092-2.832l-.958.29.958-.29zm31.374-1.216l.906.425v-.002l-.906-.423zm.017-.035l-.884-.468-.012.022-.01.023.906.422zm-.094.197l.901.434-.9-.434zm-.291.588l.89.454-.89-.454zm-1.086 1.981l-.862-.506.862.506zm-3.814 5.16l.712.701-.712-.702zm-.02.02l.67.741.022-.02.02-.02-.712-.702zm-.022.019l.671.741-.67-.741zm-4.274-8.485l.97-.245-.16-.633-.645-.108-.165.986zM31.553 30v-1h-2.185l1.429 1.654.756-.654zm.088.1l-.75.661.75-.661zm.018.02l-.75.663.75-.662zm.295.346l-.779.627.779-.627zm1.103 3.012l-.998.063.998-.063zm.002.032h1v-.032l-.002-.032-.998.064zm-.334 7.234l.852.524-.852-.524zm-.712.609l-.378-.926.378.926zm-1.845-.227l-.513.859.513-.859zm-.94-.737l.69-.725-.69.725zm-1.944-2.347l.82-.573-.82.573zm-3.789-7.23l-.934.356v.001l.934-.358zm0-.003l-.935.357.935-.357zm-.385-.706l.636-.772-.636.772zM18 30.036l-.23-.973-.758.18-.012.778 1 .015zm.257 1.17l-.957.289.957-.289zm.998 2.578l.91-.416-.91.416zm5.077 8.112l.786-.618-.786.618zm.008.011l.607.795.807-.615-.628-.798-.786.618zm0 0l-.606-.795-.796.607.608.795.794-.607zm13.812 6.235l.51.86.387-.23.085-.44-.982-.19zm.005-.028l.99.136-.99-.136zm.082-4.43l.978.206-.978-.205zm.415-.854l.738.674-.739-.674zm6.391 2.129l-.658.752.658-.752zm.007.005l.67-.742-.006-.005-.006-.006-.658.753zm.006.006l-.671.741.67-.741zm1.762 1.687l.708-.706-.708.706zm.28.282l.71-.704-.71.704zm.857.84l.673-.74-.673.74zm.697.515l-.433.901.434-.901zm5.21.066l-.297-.955.297.955zm.052-.019l.39.921.634-.268-.024-.688-1 .035zm-.04-.214l.96-.282-.008-.027-.01-.027-.942.336zm-1.041-1.586l.773-.635-.773.635zm-2.218-2.421l-.717.697.717-.697zm-.01-.01l-.7-.712-.709.697.693.712.717-.697zm.001 0l.702.713.699-.688-.675-.713-.726.688zm-1.56-1.461l-.663.748.664-.748zm-.08-.072l-.664.748.663-.748zm-1.258-1.209l.775-.631-.005-.006-.77.637zm-.615-1.578l.996.081-.996-.081zm.528-1.241l-.827-.562.827.562zm.008-.012l.827.563.014-.021.013-.022-.854-.52zm.037-.057l-.824-.566-.001.002.825.564zm0 0l.824.567.002-.003-.826-.564zm.057-.08l.808.59-.808-.59zm.162-.218l-.8-.6.8.6zm.128-.17l.8.6-.8-.6zm.441-.59l-.802-.598.802.597zm1.768-2.439l-.818-.574.818.574zm1.85-2.81l-.857-.514.858.514zm.978-1.99l-.973-.232.973.233zm.012-.05l-.943-.331-.018.049-.011.05.972.233zm.017-.048l-.943-.332.943.332zm.01-.028l.95.31.364-1.114-1.158-.183-.157.987zm-5.074.128l-.563-.826.563.826zM18.405 27c-.814 0-1.8.16-2.548.889l1.394 1.433c.2-.194.55-.322 1.154-.322v-2zm4.177 0h-4.177v2h4.177v-2zm2.436.788c-.776-.64-1.666-.788-2.436-.788v2c.523 0 .884.1 1.164.331l1.272-1.543zm1.28 1.952c-.227-.594-.578-1.374-1.28-1.952l-1.272 1.543c.282.232.483.596.683 1.122l1.869-.713zm3.445 6.584c-1.19-1.703-2.48-4.065-3.446-6.586l-1.868.716c1.024 2.67 2.39 5.176 3.674 7.015l1.64-1.145zm1.553 1.891c-.418-.398-.955-1.035-1.553-1.891l-1.64 1.145c.643.92 1.265 1.672 1.815 2.195l1.378-1.449zm.34.29a3.337 3.337 0 0 1-.34-.29l-1.378 1.45c.198.187.383.343.553.465l1.166-1.626zm-1.577.558c0 .084-.002.154-.004.212l1.998.084c.004-.09.006-.188.006-.296h-2zm0-5.49v5.49h2v-5.49h-2zm-.441-1.225c.104.129.191.256.265.432.074.18.15.448.178.862l1.995-.137c-.085-1.25-.494-1.931-.88-2.412l-1.558 1.255zm-.213-.248c.09.103.152.173.213.248l1.557-1.255c-.093-.116-.185-.22-.27-.317l-1.5 1.324zm-.013-.015l.013.015 1.5-1.323-.014-.016-1.5 1.324zm-.341-.41c.124.165.257.315.34.41l1.5-1.324a5.031 5.031 0 0 1-.244-.29l-1.596 1.205zm-.639-1.803c0 .845.373 1.45.639 1.804l1.596-1.205c-.142-.189-.235-.373-.235-.6h-2zM31.456 27c-1.538 0-3.044 1.134-3.044 2.872h2c0-.422.387-.872 1.044-.872v-2zm6.506 0h-6.506v2h6.506v-2zm2.465 1.05C39.7 27.185 38.7 27 37.962 27v2c.445 0 .744.11.933.336l1.532-1.286zm.74 2.33c0-.614-.087-1.553-.74-2.33l-1.532 1.286c.191.227.271.572.271 1.045h2zm0 7.378V30.38h-2v7.378h2zm-.793-1.467c-.404.365-.63.546-.767.638l1.119 1.658c.26-.176.574-.438.988-.812l-1.34-1.484zm3.302-4.512c-.864 1.473-2.035 3.219-3.345 4.554l1.427 1.4c1.476-1.504 2.743-3.409 3.643-4.941l-1.725-1.013zm1-1.823a35.105 35.105 0 0 1-1 1.823l1.725 1.013c.451-.77.81-1.445 1.056-1.929l-1.782-.907zm.26-.527c-.057.12-.145.3-.26.527l1.781.907c.123-.241.218-.434.282-.567l-1.802-.867zm.065-.135a15.76 15.76 0 0 1-.064.134l1.802.868.073-.153-1.811-.85zm.016-.034l-.017.036 1.813.845.016-.035-1.813-.846zm.002-.004l-.004.008 1.816.838.003-.008-1.815-.838zm0 0l-.001.002 1.817.835v-.002l-1.817-.835zm0-.001l1.816.838-1.816-.838zm0 0l1.816.838-1.816-.839zm-.003.006l1.822.825-1.822-.825zm.012-.025l-.01.021 1.819.833.01-.021-1.82-.833zm.03-.063l-.01.02 1.778.918.01-.021-1.777-.917zm1.268-1.466a3.919 3.919 0 0 0-1.267 1.466l1.777.917c.141-.273.332-.536.618-.731l-1.128-1.652zm2.317-.67c-.864 0-1.652.216-2.317.67l1.128 1.652c.286-.195.667-.323 1.19-.323v-2zm4.137 0h-4.137v2h4.137v-2zm2.773 1.162c-.772-.993-1.963-1.163-2.773-1.163v2c.626 0 1.005.147 1.194.39l1.579-1.227zm.38 2.817c.216-.647.41-1.8-.38-2.817l-1.579 1.228c.182.234.194.56.062.957l1.897.632zm-1.285 2.7c.53-.883 1.084-1.906 1.305-2.768l-1.937-.497c-.141.55-.551 1.349-1.083 2.236l1.715 1.029zm-1.968 2.99a51.813 51.813 0 0 0 1.968-2.99l-1.715-1.029a49.855 49.855 0 0 1-1.89 2.87l1.637 1.149zm-1.818 2.507c.483-.648 1.14-1.54 1.818-2.507l-1.637-1.149c-.663.945-1.308 1.821-1.785 2.462l1.604 1.194zm-.449.6c.122-.161.275-.366.45-.6l-1.605-1.194-.445.595 1.6 1.2zm-.124.166l.124-.165-1.6-1.2-.125.167 1.601 1.198zm-.137.185l.137-.185-1.601-1.198-.15.202 1.614 1.181zm-.012.018l.033-.049-1.657-1.12-.033.05 1.657 1.12zm-.15.232c.016-.03.054-.089.15-.232l-1.657-1.119a5.839 5.839 0 0 0-.232.364l1.739.987zm.032-.956a1.097 1.097 0 0 1-.066-.086l-1.672 1.097c.05.078.116.165.199.265l1.54-1.276zm.007.008l-.007-.008-1.54 1.276.008.009 1.54-1.277zm-.16 1.431l-1.219-1.585 1.22 1.585zm1.171-.491c-.615-.546-.915-.822-1.004-.931l-1.553 1.26c.221.272.695.692 1.23 1.166l1.327-1.495zm1.74 1.636c-.55-.581-1.218-1.173-1.74-1.636L49.713 41.9c.535.475 1.135 1.01 1.617 1.517l1.45-1.376zm2.374 2.596c-.663-.808-1.494-1.692-2.382-2.605l-1.434 1.394c.882.907 1.663 1.74 2.27 2.48l1.546-1.27zm1.565 2.531c-.304-.888-.937-1.766-1.565-2.531l-1.546 1.268c.607.74 1.039 1.385 1.22 1.912l1.891-.649zm.006.017l-.006-.017-1.892.65.006.015 1.892-.648zm.016.049l-.005-.017-1.913.584.005.016 1.913-.583zm-.604 3.145c.93-.994.877-2.25.604-3.145l-1.913.583c.162.534.096.93-.151 1.195l1.46 1.367zm-2.755 1.037c.803 0 1.938-.166 2.755-1.037l-1.46-1.367c-.25.267-.69.404-1.295.404v2zm-4.136 0h4.136v-2h-4.136v2zm-1.891-.42a4.27 4.27 0 0 0 1.89.42v-2c-.39 0-.715-.073-1.024-.222l-.866 1.803zm-1.42-1.001c.392.356.854.73 1.42 1.002l.866-1.803c-.31-.148-.604-.373-.938-.678l-1.347 1.479zm-.984-.963c.34.343.675.68.985.963l1.347-1.479c-.265-.241-.56-.539-.912-.893l-1.42 1.409zm-.256-.258l.256.258 1.42-1.409-.26-.261-1.416 1.412zM43.05 47.2c.664.6 1.192 1.121 1.644 1.575l1.417-1.412a44.604 44.604 0 0 0-1.719-1.646L43.051 47.2zm-2.8-1.923c-.172 0 .43-.15 2.813 1.934l1.316-1.505c-2.444-2.138-3.527-2.429-4.13-2.429v2zm-.058 0h.058v-2l-.096.001.038 2zm.974-.728c0-.093.002-.159.005-.205l-1.996-.133c-.006.102-.01.214-.01.338h2zm0 3.378V44.55h-2v3.378h2zm-.235 1.353c.212-.531.234-1.038.234-1.353h-2c0 .226-.02.431-.091.61l1.857.743zm-1.22 1.424c.562-.34.981-.827 1.22-1.424l-1.857-.743a.924.924 0 0 1-.4.457l1.037 1.71zm-3.517.676c1.322 0 2.582-.108 3.517-.676l-1.038-1.71c-.412.25-1.156.386-2.48.386v2zM21.96 43.734c3.74 4.893 9.156 7.646 14.234 7.646v-2c-4.375 0-9.232-2.395-12.645-6.86l-1.59 1.214zm-5.435-8.703c1.06 2.32 2.78 5.324 5.443 8.714l1.572-1.236c-2.567-3.267-4.202-6.136-5.196-8.31l-1.819.832zm-1.14-2.959c.24.8.61 1.799 1.14 2.959l1.82-.831a21.765 21.765 0 0 1-1.046-2.705l-1.915.577zM15 30.053c0 .555.163 1.284.385 2.02l1.915-.578c-.212-.703-.3-1.196-.3-1.442h-2zm.857-2.164c-.78.759-.857 1.698-.857 2.165h2c0-.275.051-.537.251-.732l-1.394-1.433zm32.767 3.1l.016-.035-1.812-.845-.017.036 1.813.845zm-.083.174l.082-.171-1.811-.85c-.017.036-.04.087-.073.154l1.802.867zm-.301.608c.13-.256.231-.463.301-.608l-1.802-.867c-.064.133-.159.326-.282.567l1.783.908zm-1.114 2.033c.475-.81.853-1.522 1.114-2.033l-1.783-.908a37.235 37.235 0 0 1-1.056 1.929l1.725 1.012zM43.16 39.16c1.654-1.678 3.026-3.756 3.965-5.355L45.4 32.792c-.904 1.54-2.179 3.456-3.665 4.963l1.425 1.404zm-.02.02l.02-.02-1.425-1.404-.02.02 1.425 1.404zm-.063.06l.021-.02-1.341-1.483-.022.02 1.342 1.482zm-3.269 1.679c1.41 0 2.408-.9 3.27-1.68l-1.343-1.483c-.957.867-1.402 1.163-1.927 1.163v2zm-2.642-3.09c0 .672.171 1.406.585 2.002.435.628 1.136 1.088 2.057 1.088v-2c-.184 0-.303-.068-.414-.227-.131-.19-.229-.501-.229-.863h-2zm0-7.448v7.448h2V30.38h-2zm-.004-.124c-.005-.022-.004-.025-.002-.002.003.022.005.063.005.127h2c0-.236-.02-.44-.063-.614l-1.94.49zm.799.744c.033 0 .032.002.006-.002l.33-1.973a2.041 2.041 0 0 0-.336-.025v2zm-6.409 0h6.409v-2h-6.409v2zm.837-1.562a11.757 11.757 0 0 1-.08-.092l-1.513 1.308.094.107 1.5-1.323zm.019.02l-.019-.02-1.5 1.323.02.022 1.499-1.324zm.324.38c-.123-.152-.242-.286-.324-.38l-1.5 1.325c.085.095.176.198.266.31l1.558-1.254zm1.322 3.577c-.11-1.74-.71-2.816-1.322-3.576l-1.558 1.254c.392.486.803 1.177.884 2.448l1.996-.126zm.002.032l-.002-.032-1.996.126.002.032 1.996-.127zm.002.094v-.031h-2v.031h2zm0 5.522v-5.522h-2v5.522h2zm-.482 2.205c.45-.733.482-1.611.482-2.205h-2c0 .595-.06.952-.186 1.158l1.704 1.047zm-1.186 1.01a2.487 2.487 0 0 0 1.186-1.01l-1.704-1.047a.487.487 0 0 1-.238.206l.756 1.852zm-1.095.202a2.88 2.88 0 0 0 1.095-.201l-.756-1.852a.898.898 0 0 1-.34.053v2zm-1.64-.495c.37.221.945.495 1.64.495v-2c-.176 0-.383-.073-.615-.212l-1.026 1.717zm-1.116-.872a6.43 6.43 0 0 0 1.115.872l1.026-1.717a4.512 4.512 0 0 1-.763-.604l-1.378 1.45zm-2.076-2.498c.687.982 1.395 1.851 2.076 2.498l1.378-1.449c-.55-.523-1.172-1.275-1.815-2.195l-1.64 1.146zm-3.902-7.446c1.08 2.82 2.522 5.47 3.902 7.446l1.64-1.146c-1.286-1.839-2.651-4.346-3.675-7.016l-1.867.716zm-.002-.003l.001.002 1.868-.714v-.002l-1.869.714zm-.085-.29c-.08-.067-.101-.115-.077-.073.025.042.08.148.162.363l1.869-.713c-.2-.523-.4-.889-.683-1.122l-1.271 1.544zm.107.124c.068 0 .11.003.131.006.022.002.017.003-.005-.003a.587.587 0 0 1-.191-.096.734.734 0 0 1-.042-.032l1.271-1.544a1.317 1.317 0 0 0-.49-.251 2.463 2.463 0 0 0-.674-.08v2zm-4.177 0h4.177v-2h-4.177v2zm-.174.01c-.016.003.032-.01.174-.01v-2c-.257 0-.466.023-.636.064l.462 1.946zm.769-.957v-.001l-2-.03v.032h2zm.215.864a7.92 7.92 0 0 1-.184-.709 2.734 2.734 0 0 1-.029-.167c-.006-.045-.002-.033-.002.012h-2c0 .246.088.74.3 1.442l1.915-.578zm.95 2.451a19.759 19.759 0 0 1-.95-2.45l-1.915.577c.212.703.548 1.617 1.045 2.704l1.82-.83zm4.953 7.91c-2.474-3.147-4.027-5.882-4.954-7.91l-1.819.831c.994 2.176 2.63 5.046 5.2 8.315l1.573-1.236zm.009.011l-.01-.01-1.572 1.235.01.011 1.572-1.236zm-.18 1.413l-1.213-1.59 1.213 1.59zm11.248 4.678c-3.675 0-7.974-2.04-11.06-6.08l-1.59 1.214c3.414 4.469 8.273 6.866 12.65 6.866v-2zm1.447-.099c.084-.05.07-.015-.188.026-.238.038-.633.073-1.26.073v2c.693 0 1.2-.038 1.573-.097.352-.056.658-.14.895-.281l-1.02-1.72zm-.476.698c0-.006.002-.016.005-.028l1.963.38.014-.08-1.982-.272zm0-.052v.055-.003l1.982.271c.013-.102.018-.21.018-.323h-2zm0-3.378v3.378h2V44.55h-2zm.094-1.07a5.24 5.24 0 0 0-.093 1.07h2c0-.272.014-.488.05-.659l-1.957-.41zm.655-1.322a2.785 2.785 0 0 0-.655 1.322l1.957.411a.798.798 0 0 1 .175-.386l-1.477-1.347zm2.336-.88c-.366 0-1.515-.021-2.336.88l1.477 1.347a.633.633 0 0 1 .336-.182 2.18 2.18 0 0 1 .523-.045v-2zm5.453 2.929c-2.512-2.198-4.077-2.929-5.453-2.929v2c.602 0 1.687.291 4.136 2.434l1.317-1.505zm.006.005l-.006-.005-1.317 1.505.006.006 1.317-1.506zm.019.017l-.007-.006-1.341 1.484.006.005 1.342-1.483zm1.8 1.723a46.587 46.587 0 0 0-1.8-1.723l-1.342 1.483c.703.636 1.26 1.185 1.725 1.652l1.416-1.412zm.281.284l-.282-.284-1.416 1.412.279.28 1.42-1.408zm.82.804a24.346 24.346 0 0 1-.82-.804l-1.42 1.409c.336.337.624.628.893.873l1.347-1.478zm.458.354c-.053-.026-.18-.101-.458-.354l-1.347 1.478c.334.304.628.53.938.678l.867-1.802zm.158.024a.563.563 0 0 1-.117-.01.17.17 0 0 1-.041-.014l-.867 1.802c.31.149.633.222 1.025.222v-2zm4.136 0h-4.136v2h4.136v-2zm.185-.012c.016-.005.01-.001-.023.003a1.279 1.279 0 0 1-.162.009v2c.301 0 .562-.034.78-.102l-.595-1.91zm-.04.016a.413.413 0 0 1 .04-.016l.594 1.91c.052-.016.1-.034.145-.053l-.78-1.841zm-.61.987c.01.037.002.024 0-.032l1.999-.07a1.878 1.878 0 0 0-.08-.46l-1.92.562zm-.855-1.233c.577.704.81 1.114.872 1.287l1.884-.671c-.185-.52-.611-1.155-1.21-1.885l-1.546 1.27zM49.9 44.817c.877.901 1.61 1.687 2.162 2.358l1.546-1.269c-.608-.74-1.39-1.575-2.274-2.484L49.9 44.817zm-.009-.01l.01.01 1.433-1.395-.01-.009-1.433 1.395zm.016-1.41l1.403 1.426-1.404-1.425zm-1.522 0c.551.49 1.086.967 1.497 1.401l1.452-1.376c-.482-.508-1.085-1.044-1.621-1.52l-1.328 1.495zm-.081-.072l.08.072 1.329-1.496a53.172 53.172 0 0 1-.082-.072l-1.327 1.496zM46.934 42c.337.413.923.929 1.37 1.325l1.327-1.496c-.504-.447-.938-.836-1.146-1.092L46.935 42zm-.836-2.292c-.086 1.05.453 1.829.841 2.298l1.541-1.275c-.3-.362-.409-.616-.389-.86l-1.993-.163zm.698-1.721c-.17.249-.63.896-.698 1.721l1.993.163c.008-.1.044-.217.112-.355.07-.14.153-.267.247-.405l-1.654-1.124zm.008-.012a.83.83 0 0 0-.008.012l1.654 1.124a.396.396 0 0 0 .008-.011l-1.654-1.125zm.039-.06c-.008.013-.035.052-.066.102l1.708 1.04a.203.203 0 0 1 .004-.006l.005-.006-1.651-1.13zm.001-.002l1.648 1.134-1.648-1.134zm.074-.103l-.075.105 1.65 1.13.04-.055-1.615-1.18zm.169-.227l-.17.227 1.616 1.18.155-.21-1.601-1.197zm.128-.172l-.128.172 1.601 1.198.127-.17-1.6-1.2zm.44-.587l-.44.587 1.6 1.2.443-.592-1.604-1.195zm1.75-2.415c-.647.922-1.28 1.782-1.75 2.415l1.603 1.195c.477-.64 1.122-1.517 1.785-2.462l-1.637-1.148zm1.812-2.75a48.004 48.004 0 0 1-1.811 2.75l1.637 1.148a49.855 49.855 0 0 0 1.89-2.87l-1.716-1.028zm.862-1.708c-.05.21-.306.78-.862 1.708l1.716 1.028c.546-.911.96-1.725 1.091-2.27l-1.945-.466zm.013-.05l-.013.05 1.945.466.012-.05-1.944-.466zm.046-.148l-.017.049 1.886.663.017-.048-1.886-.664zm.002-.006a.204.204 0 0 0-.002.006l1.886.664.017-.05-1.901-.62zm.64 1.29c.09 0 .14.006.154.008l.313-1.976a3 3 0 0 0-.467-.033v2zm-4.137 0h4.137v-2h-4.137v2zm-.062-.026a.342.342 0 0 1-.07.036.53.53 0 0 1 .132-.01v-2c-.523 0-.904.127-1.19.322l1.128 1.652zm.037-.012c.02-.039.03-.048.024-.041a.345.345 0 0 1-.06.053l-1.128-1.652a1.906 1.906 0 0 0-.604.705l1.768.935z" fill="#fff" mask="url(#a)"/><circle cx="36.5" cy="36.5" r="35.5" stroke="#fff" stroke-width="2"/></svg>