<svg width="76" height="71" viewBox="0 0 76 71" fill="none" xmlns="http://www.w3.org/2000/svg">
<path d="M53.1188 6.52567C52.7779 6.52567 52.4999 6.24761 52.4999 5.90676C52.4999 5.5659 52.7779 5.28784 53.1188 5.28784H59.2272V56.9985C59.2272 60.5954 57.7741 63.8514 55.415 66.2105C53.056 68.5695 49.8 70.0316 46.1941 70.0316H7.32812V63.9232C7.32812 63.5823 7.60619 63.3043 7.94704 63.3043C8.28789 63.3043 8.56595 63.5823 8.56595 63.9232V68.7848H46.1941C49.4501 68.7848 52.4012 67.4662 54.536 65.3314C56.6708 63.1966 57.9894 60.2545 57.9894 56.9985V6.52567H53.1188Z" fill="white"/>
<path d="M34.3639 0.650635H19.3754C18.7206 0.650635 18.1914 1.17985 18.1914 1.82567V8.26596C18.1914 9.64731 19.3126 10.7596 20.685 10.7596H20.7209C21.7614 10.7596 22.6494 10.1048 23.053 9.145C23.6809 7.65602 25.1519 6.61553 26.8741 6.61553C28.5874 6.61553 30.0584 7.65602 30.6863 9.145C31.0899 10.1048 31.9779 10.7596 33.0184 10.7596H33.0543C34.4356 10.7596 35.5479 9.64731 35.5479 8.26596V1.82567C35.5479 1.17985 35.0187 0.650635 34.3639 0.650635Z" fill="white"/>
<path d="M13.1048 0.0317383C13.4457 0.0317383 13.7237 0.309801 13.7237 0.650652C13.7237 0.991503 13.4457 1.26957 13.1048 1.26957H1.23783V63.3044H41.9157C42.6961 63.3044 43.4047 62.9815 43.916 62.4703V62.4792C44.4272 61.968 44.7412 61.2593 44.7412 60.479V55.5366H49.6835C50.4549 55.5366 51.1635 55.2227 51.6748 54.7114C52.1861 54.2001 52.5 53.4915 52.5 52.7201V1.26957H40.633C40.2922 1.26957 40.0141 0.991503 40.0141 0.650652C40.0141 0.309801 40.2922 0.0317383 40.633 0.0317383H53.7379V52.7201C53.7379 53.8413 53.2894 54.8549 52.5538 55.5905C51.8183 56.326 50.8047 56.7834 49.6835 56.7834H45.979V60.479C45.979 61.6002 45.5216 62.6138 44.786 63.3493C44.0595 64.0848 43.0369 64.5423 41.9157 64.5423H0V0.0317383H13.1048Z" fill="white"/>
<path d="M39.3154 31.8564C39.3154 31.3362 39.737 30.9236 40.2572 30.9236C40.7685 30.9236 41.1901 31.3362 41.1901 31.8564V47.4549C41.1901 47.9751 40.7685 48.3967 40.2572 48.3967H13.4914C12.9712 48.3967 12.5586 47.9751 12.5586 47.4549V31.8564C12.5586 31.3362 12.9712 30.9236 13.4914 30.9236C14.0027 30.9236 14.4243 31.3362 14.4243 31.8564V46.522H39.3154V31.8564Z" fill="white"/>
<path d="M31.1316 24.8782C31.5442 25.1921 31.6249 25.7751 31.3199 26.1877C31.006 26.5914 30.4229 26.6811 30.0193 26.3671L26.8709 24.0081L23.7225 26.3671C23.3099 26.6811 22.7269 26.5914 22.4219 26.1877C22.108 25.7751 22.1887 25.1921 22.6013 24.8782L26.2969 22.1065C26.6198 21.8553 27.0862 21.8374 27.427 22.0975L31.1316 24.8782Z" fill="white"/>
<path d="M10.9498 30.2508C10.5461 30.5558 9.96311 30.475 9.64917 30.0624C9.3442 29.6498 9.42493 29.0668 9.83754 28.7618L26.306 16.3656C26.6558 16.1055 27.1133 16.1234 27.4362 16.3746L43.8957 28.7618C44.3083 29.0668 44.398 29.6498 44.0841 30.0624C43.7791 30.475 43.1961 30.5558 42.7835 30.2508L26.8711 18.2762L10.9498 30.2508Z" fill="white"/>
<path d="M24.0337 38.207H29.7115V32.7893H24.0337V38.207ZM30.6444 40.0817H23.1008C22.5895 40.0817 22.168 39.6601 22.168 39.1399V31.8564C22.168 31.3362 22.5895 30.9236 23.1008 30.9236H30.6444C31.1646 30.9236 31.5773 31.3362 31.5773 31.8564V39.1399C31.5773 39.6601 31.1646 40.0817 30.6444 40.0817Z" fill="white"/>
<path d="M66.1179 63.3043H74.7109V6.52567H66.1179V63.3043ZM75.3298 64.5421H64.8711V5.28784H75.9577V64.5421H75.3298Z" fill="white"/>
<path d="M75.3273 51.9846C75.6771 51.9846 75.9552 52.2627 75.9552 52.6035C75.9552 52.9444 75.6771 53.2224 75.3273 53.2224H70.4119C70.071 53.2224 69.793 52.9444 69.793 52.6035C69.793 52.2627 70.071 51.9846 70.4119 51.9846H75.3273Z" fill="white"/>
<path d="M75.3273 43.1404C75.6771 43.1404 75.9552 43.4184 75.9552 43.7593C75.9552 44.1001 75.6771 44.3782 75.3273 44.3782H70.4119C70.071 44.3782 69.793 44.1001 69.793 43.7593C69.793 43.4184 70.071 43.1404 70.4119 43.1404H75.3273Z" fill="white"/>
<path d="M75.3273 34.2961C75.6771 34.2961 75.9552 34.5742 75.9552 34.9151C75.9552 35.2559 75.6771 35.534 75.3273 35.534H70.4119C70.071 35.534 69.793 35.2559 69.793 34.9151C69.793 34.5742 70.071 34.2961 70.4119 34.2961H75.3273Z" fill="white"/>
<path d="M75.3273 25.4519C75.6771 25.4519 75.9552 25.73 75.9552 26.0708C75.9552 26.4117 75.6771 26.6897 75.3273 26.6897H70.4119C70.071 26.6897 69.793 26.4117 69.793 26.0708C69.793 25.73 70.071 25.4519 70.4119 25.4519H75.3273Z" fill="white"/>
<path d="M75.3273 16.5989C75.6771 16.5989 75.9552 16.8769 75.9552 17.2268C75.9552 17.5676 75.6771 17.8457 75.3273 17.8457H70.4119C70.071 17.8457 69.793 17.5676 69.793 17.2268C69.793 16.8769 70.071 16.5989 70.4119 16.5989H75.3273Z" fill="white"/>
<path d="M30.6415 32.3049H23.5195V39.1399H30.6415V32.3049Z" fill="white"/>
</svg>
