<svg width="73" height="100" viewBox="0 0 73 100" fill="none" xmlns="http://www.w3.org/2000/svg">
<path d="M21.2714 18.2682C20.8593 6.29205 29.8948 4.38108 35.1013 3.69704C36.6307 3.5016 41.7179 2.90442 45.2107 1.48206C45.2107 1.48206 46.1218 3.58846 46.111 5.82516C46.111 5.82516 50.4823 5.91202 55.4827 3.16501C55.5261 5.456 55.5912 10.0597 54.6692 12.1444C53.7472 14.2399 52.0443 16.0749 49.864 16.7481C48.4539 17.1715 46.9462 17.1064 45.4818 16.9109C42.5532 16.5201 39.7113 15.6514 36.8043 15.0868C34.5698 14.6525 32.2377 14.4137 29.9924 14.7285C27.5518 15.0651 25.0896 15.2063 22.6273 15.2497L21.4016 15.2714L21.2714 18.2682Z" fill="#FEEA84"/>
<path d="M36.5005 99.5277L44.6899 90.1683L40.1884 64.5331H32.8125L36.5005 99.5277Z" fill="#FEEA84"/>
<path d="M32.814 64.5331L28.3125 90.1683L36.5019 99.5277L32.814 64.5331Z" fill="#FEEA84"/>
<path d="M23.1267 89.4842C23.4955 89.4842 23.7992 89.7882 23.7992 90.1682C23.7992 90.5374 23.4955 90.8414 23.1267 90.8414H0.402344L3.2334 72.7198V72.6872C3.7649 70.0054 5.04484 67.747 6.61765 66.0097C8.50502 63.925 10.8263 62.5787 12.8113 62.1443V62.1552C13.6465 61.9381 20.9139 60.1465 20.9356 60.1357H20.9573C22.8881 59.7014 24.5911 58.659 25.8385 57.2366C27.0642 55.8251 27.856 54.0445 27.9862 52.0901C27.997 51.8403 28.0078 51.6015 28.0187 51.3734C28.0187 51.1237 28.0187 50.874 28.0187 50.6134C28.0078 50.2334 28.3007 49.9294 28.6695 49.9185C29.0492 49.9076 29.3529 50.2008 29.3637 50.5808C29.3746 50.8523 29.3746 51.1346 29.3637 51.3952C29.3637 51.6883 29.3529 51.9489 29.3312 52.1769C29.1793 54.4353 28.279 56.4983 26.8581 58.127C25.4263 59.7556 23.4847 60.95 21.261 61.4495C21.2393 61.4603 13.2018 63.4364 13.1801 63.4473L13.0933 63.469C11.3578 63.849 9.3077 65.0434 7.61557 66.9109C6.20547 68.4853 5.04484 70.5157 4.56757 72.9478H4.55673L1.986 89.4842H23.1267Z" fill="#777777"/>
<path d="M49.8779 90.8414C49.5091 90.8414 49.2054 90.5374 49.2054 90.1682C49.2054 89.7882 49.5091 89.4842 49.8779 89.4842H71.0186L68.4479 72.9478C67.9598 70.5157 66.81 68.4853 65.3891 66.9109C63.697 65.0434 61.6469 63.849 59.9114 63.469L59.8354 63.4581L59.7487 63.4147C59.651 63.3713 51.7653 61.4603 51.7436 61.4495C49.5308 60.95 47.5784 59.7556 46.1466 58.127C44.7256 56.4983 43.8253 54.4353 43.6735 52.1769C43.6518 51.938 43.6409 51.6775 43.6409 51.3843C43.6301 51.1237 43.6301 50.8523 43.6409 50.5808C43.6518 50.2008 43.9555 49.9076 44.3352 49.9185C44.7039 49.9294 44.9968 50.2334 44.986 50.6134C44.986 50.8631 44.986 51.1129 44.986 51.3517C44.9968 51.5906 45.0077 51.8295 45.0185 52.0901C45.1487 54.0445 45.9405 55.8251 47.1662 57.2366C48.4136 58.659 50.1166 59.7014 52.0473 60.1357H52.069C52.0907 60.1465 59.0436 61.8512 60.1934 62.1552V62.1443C62.1784 62.5787 64.4996 63.925 66.387 66.0097C67.9598 67.747 69.2397 70.0054 69.7712 72.6872L69.7821 72.7198L72.6023 90.8414H49.8779Z" fill="#777777"/>
<path d="M21.7499 17.9207C21.7608 18.2899 21.4679 18.6048 21.0991 18.6156C20.7303 18.6265 20.4158 18.3333 20.4049 17.9642C20.188 11.6992 22.4658 8.05102 25.4921 5.86861C28.4751 3.71877 32.1413 3.05645 34.8205 2.69814L35.1676 2.65471C36.9791 2.41584 41.5782 1.81866 44.7672 0.526588C45.1143 0.385437 45.5048 0.548303 45.6458 0.895752L45.6566 0.906609C45.7434 1.12376 46.4376 2.82843 46.5678 4.79369C47.9237 4.70683 51.2537 4.28337 54.9633 2.24211C55.2996 2.05753 55.7009 2.17697 55.8853 2.5027C55.9504 2.62214 55.9721 2.74157 55.9721 2.86101C55.9938 4.02279 56.0155 5.74917 55.9179 7.43213C55.8202 9.20194 55.5924 10.9609 55.0935 12.0901L55.0826 12.1227C54.562 13.2845 53.8352 14.3594 52.9132 15.228C52.0563 16.0641 51.0259 16.7047 49.8653 17.063C49.0951 17.291 48.3033 17.3887 47.5115 17.4104C46.7413 17.4213 45.9712 17.3561 45.2119 17.2475C43.3679 17.0087 41.6107 16.5852 39.8535 16.1726C38.7254 15.9012 37.5865 15.6406 36.491 15.4234C35.07 15.152 33.6165 14.9566 32.1847 14.9348C30.7746 14.9131 29.3754 15.0651 28.0303 15.4777C27.6724 15.5863 27.2927 15.3909 27.1843 15.0326C27.0758 14.6743 27.2819 14.2942 27.629 14.1857C29.115 13.7296 30.6553 13.5559 32.2064 13.5776C33.7358 13.5993 35.2653 13.8056 36.7513 14.0879C37.9228 14.316 39.04 14.5874 40.1681 14.8588C41.9144 15.2714 43.6608 15.684 45.3855 15.912C46.0905 15.9989 46.7956 16.0641 47.4898 16.0532C48.1731 16.0423 48.8348 15.9663 49.4748 15.7709C50.4185 15.4777 51.2645 14.9457 51.9913 14.2508C52.7722 13.5016 53.4014 12.5787 53.8461 11.5798L53.8569 11.5472C54.28 10.5809 54.4752 8.99564 54.5728 7.35612C54.6379 6.15091 54.6379 4.9457 54.6379 3.93593C49.952 6.22691 46.0146 6.17263 45.917 6.17263C45.5482 6.17263 45.2445 5.86861 45.2445 5.48859C45.2553 4.10965 44.8865 2.77415 44.6262 2.02496C41.3504 3.20846 37.0875 3.77306 35.3412 4.00107L34.9941 4.0445C32.4667 4.37024 29.0174 4.99999 26.284 6.96524C23.5831 8.90878 21.5547 12.1987 21.7499 17.9207Z" fill="#777777"/>
<path d="M47.8033 29.6797C47.8033 29.2997 48.107 28.9957 48.4867 28.9957C48.8555 28.9957 49.1592 29.2997 49.1592 29.6797V31.6992C49.1592 32.1227 48.9857 32.5027 48.7145 32.785C48.4325 33.0565 48.0528 33.2302 47.6298 33.2302H40.3732C39.9501 33.2302 39.5705 33.0565 39.2885 32.785C39.0173 32.5027 38.8438 32.1227 38.8438 31.6992V27.6601C38.8438 27.2367 39.0173 26.8567 39.2885 26.5744C39.5705 26.3029 39.9501 26.1292 40.3732 26.1292H47.5105L53.0858 23.8925C53.4329 23.7514 53.8234 23.9251 53.9644 24.2725C54.1054 24.62 53.9427 25.0109 53.5956 25.152L47.7599 27.4864H40.3732C40.3189 27.4864 40.2755 27.5081 40.2539 27.5299C40.2213 27.5624 40.1996 27.6059 40.1996 27.6601V31.6992C40.1996 31.7535 40.2213 31.797 40.2539 31.8295C40.2755 31.8621 40.3189 31.873 40.3732 31.873H47.6298C47.684 31.873 47.7274 31.8621 47.7599 31.8295C47.7816 31.797 47.8033 31.7535 47.8033 31.6992V29.6797Z" fill="#777777"/>
<path d="M23.8442 29.6797C23.8442 29.2997 24.1479 28.9957 24.5167 28.9957C24.8963 28.9957 25.2001 29.2997 25.2001 29.6797V31.6992C25.2001 31.7535 25.2218 31.797 25.2434 31.8295C25.276 31.8621 25.3194 31.873 25.3736 31.873H32.6302C32.6845 31.873 32.7278 31.8621 32.7604 31.8295C32.7929 31.797 32.8038 31.7535 32.8038 31.6992V27.6601C32.8038 27.6059 32.7929 27.5624 32.7604 27.5299C32.7278 27.4973 32.6845 27.4864 32.6302 27.4864H25.2434L19.4078 25.152C19.0607 25.0109 18.898 24.62 19.039 24.2725C19.18 23.9251 19.5705 23.7514 19.9176 23.8925L25.4929 26.1292H32.6302C33.0533 26.1292 33.4329 26.3029 33.7149 26.5744C33.9969 26.8567 34.1596 27.2367 34.1596 27.6601V31.6992C34.1596 32.1227 33.9969 32.5027 33.7149 32.785C33.4329 33.0673 33.0533 33.2302 32.6302 33.2302H25.3736C24.9506 33.2302 24.5709 33.0673 24.2889 32.785C24.0177 32.5027 23.8442 32.1227 23.8442 31.6992V29.6797Z" fill="#777777"/>
<path d="M33.4841 30.3528C33.1045 30.3528 32.8008 30.0488 32.8008 29.6796C32.8008 29.2996 33.1045 28.9956 33.4841 28.9956H39.5259C39.8947 28.9956 40.1984 29.2996 40.1984 29.6796C40.1984 30.0488 39.8947 30.3528 39.5259 30.3528H33.4841Z" fill="#777777"/>
<path d="M42.9886 58.3225C43.3248 58.1488 43.737 58.2682 43.8997 58.6048C44.0733 58.9305 43.9539 59.3431 43.6177 59.5168L36.8166 63.0782C36.6106 63.1867 36.3828 63.1759 36.1875 63.0782L29.3865 59.5168C29.0611 59.3431 28.9309 58.9305 29.1045 58.6048C29.278 58.2682 29.6794 58.1488 30.0156 58.3225L36.5021 61.721L42.9886 58.3225Z" fill="#777777"/>
<path d="M51.6961 19.0283C51.5985 18.6699 51.8046 18.3008 52.1625 18.2031C52.5313 18.1053 52.9001 18.3225 52.9977 18.6808C53.4425 20.3312 53.757 22.0901 53.9631 23.936C54.1584 25.7818 54.2451 27.7036 54.2451 29.6797C54.2451 36.1075 52.2818 41.9381 49.1145 46.1727C45.893 50.4615 41.4349 53.1108 36.4995 53.1108C31.5642 53.1108 27.1061 50.4615 23.8845 46.1727C20.7172 41.9381 18.7539 36.1075 18.7539 29.6797C18.7539 27.443 18.8841 25.2823 19.1769 23.2194C19.4481 21.2758 19.8603 19.43 20.4352 17.7253C20.5545 17.367 20.9341 17.1824 21.2921 17.3019C21.6392 17.4104 21.8344 17.8013 21.7151 18.1488C21.1728 19.7774 20.7714 21.5364 20.5111 23.4039C20.2291 25.38 20.1098 27.4865 20.1098 29.6797C20.1098 35.8144 21.9646 41.3518 24.9692 45.3583C27.9304 49.3105 32.0089 51.7535 36.4995 51.7535C40.9902 51.7535 45.0686 49.3105 48.0298 45.3583C51.0344 41.3627 52.8893 35.8144 52.8893 29.6797C52.8893 27.7362 52.8025 25.8578 52.6181 24.0771C52.4229 22.2964 52.1191 20.6026 51.6961 19.0283Z" fill="#777777"/>
</svg>
