<svg width="88" height="56" viewBox="0 0 88 56" fill="none" xmlns="http://www.w3.org/2000/svg">
<path d="M41.1504 0C41.4847 0 41.7521 0.270578 41.7521 0.608801C41.7521 0.93736 41.4847 1.20794 41.1504 1.20794H26.013C21.5626 1.20794 17.5036 2.88939 14.4188 5.64349C11.3054 8.42658 9.17567 12.321 8.6313 16.7179V23.405C8.6313 23.7336 8.36389 24.0041 8.03918 24.0041C7.70491 24.0041 7.4375 23.7336 7.4375 23.405V16.6792C7.4375 16.6502 7.44705 16.6309 7.44705 16.6019C8.02007 11.9054 10.2931 7.7308 13.6357 4.74478C16.9306 1.79741 21.2665 0 26.013 0H41.1504Z" fill="#777777"/>
<path d="M80.4266 55.3911V38.8085C84.6192 38.451 87.8472 34.6629 87.3601 30.2273C86.9877 26.9031 84.4568 24.1393 81.2097 23.5305C79.7676 23.2696 78.3541 23.4146 77.0935 23.8881C74.066 25.0187 72.1559 28.082 72.1559 31.3483V46.8872H15.8562V31.3483C15.8562 28.082 13.9462 25.0187 10.9091 23.8881C9.64848 23.4146 8.24457 23.2696 6.79291 23.5402C3.55532 24.1393 1.01491 26.9031 0.642445 30.2273C0.155374 34.6629 3.38341 38.451 7.58559 38.8085V55.3911H80.4266Z" fill="#FEEA84"/>
<path d="M79.8236 54.792V38.8086C79.8236 38.4801 80.0814 38.2191 80.3966 38.1998L80.5781 38.1805C82.4308 37.9776 84.064 37.0402 85.1909 35.6583C86.3179 34.2861 86.9482 32.4694 86.7858 30.5077L86.7667 30.2854C86.5948 28.7586 85.9263 27.3574 84.9235 26.2654C83.9207 25.1831 82.5932 24.4003 81.1033 24.1298C80.4539 24.0041 79.8045 23.9751 79.1742 24.0331C78.5247 24.0911 77.8944 24.236 77.3023 24.4583C75.927 24.9705 74.8001 25.9078 74.0169 27.0964C73.2051 28.3237 72.7467 29.8119 72.7467 31.3484V46.8873C72.7467 47.2255 72.4793 47.4961 72.1546 47.4961H15.855C15.5207 47.4961 15.2533 47.2255 15.2533 46.8873V31.3484C15.2533 29.8119 14.8044 28.3237 13.9926 27.0964C13.1999 25.9078 12.0825 24.9705 10.6977 24.4583C10.1056 24.236 9.47528 24.0911 8.82585 24.0331C8.19552 23.9751 7.55565 24.0041 6.90622 24.1298C5.41636 24.41 4.0793 25.1831 3.08606 26.2654C2.08326 27.3574 1.40518 28.7586 1.23328 30.2854L1.21418 30.5077C1.05182 32.4694 1.68215 34.2861 2.80909 35.6583C3.94559 37.0402 5.57871 37.9679 7.43149 38.1805L7.63205 38.1998C7.94721 38.2288 8.17642 38.4897 8.17642 38.8086V54.792H79.8236ZM81.0174 39.3401V55.3912C81.0174 55.7294 80.75 56 80.4253 56H7.5843C7.25003 56 6.98262 55.7294 6.98262 55.3912V39.3401C4.94839 39.0309 3.15291 37.9582 1.89225 36.4314C0.574299 34.8176 -0.161083 32.7013 0.0299253 30.4014L0.0490261 30.1598C0.249585 28.3624 1.04227 26.7196 2.20742 25.444C3.38212 24.1781 4.93884 23.2697 6.68656 22.9411C7.45059 22.7962 8.20507 22.7672 8.93091 22.8252C9.68539 22.8928 10.4208 23.0668 11.1084 23.318C12.732 23.9268 14.0595 25.0381 14.9763 26.4297C15.9218 27.8502 16.4471 29.5703 16.4471 31.3484V46.2882H71.5529V31.3484C71.5529 29.5703 72.0782 27.8502 73.0237 26.4297C73.9501 25.0381 75.268 23.9268 76.8916 23.318C77.5792 23.0668 78.3146 22.8928 79.0787 22.8252C79.8045 22.7672 80.5494 22.7962 81.3134 22.9411C83.0707 23.2697 84.6274 24.1781 85.7926 25.444C86.9673 26.7196 87.7504 28.3624 87.951 30.1598C87.9605 30.2564 87.9701 30.3434 87.9701 30.4014C88.1611 32.7013 87.4257 34.8176 86.1077 36.4314C84.8471 37.9582 83.0516 39.0309 81.0174 39.3401Z" fill="#777777"/>
<path d="M15.8556 34.75C15.5213 34.75 15.2539 34.4794 15.2539 34.1412C15.2539 33.8126 15.5213 33.5421 15.8556 33.5421H72.1552C72.4799 33.5421 72.7474 33.8126 72.7474 34.1412C72.7474 34.4794 72.4799 34.75 72.1552 34.75H15.8556Z" fill="#777777"/>
<path d="M38.7171 1.20794C38.3924 1.20794 38.125 0.93736 38.125 0.608801C38.125 0.270578 38.3924 0 38.7171 0H61.9819C66.7189 0 71.0548 1.79741 74.3592 4.74478C77.7019 7.7308 79.9749 11.9054 80.5479 16.6019C80.5479 16.6309 80.5479 16.6502 80.5479 16.6792V23.405C80.5479 23.7336 80.2805 24.0041 79.9558 24.0041C79.6215 24.0041 79.3541 23.7336 79.3541 23.405V16.7179C78.8193 12.321 76.6895 8.42658 73.5666 5.64349C70.4818 2.88939 66.4229 1.20794 61.9819 1.20794H38.7171Z" fill="#777777"/>
</svg>
