<svg width="74" height="86" viewBox="0 0 74 86" fill="none" xmlns="http://www.w3.org/2000/svg">
<path d="M64.9907 68.2674H14.3435C13.1042 68.2674 12.0938 67.257 12.0938 66.0177V22.5009C12.0938 21.2617 13.1042 20.2512 14.3435 20.2512H64.9907C66.23 20.2512 67.25 21.2617 67.25 22.5009V66.0177C67.25 67.257 66.23 68.2674 64.9907 68.2674Z" fill="white"/>
<path d="M62.7671 78.5909C62.7957 78.9531 62.5383 79.2772 62.1761 79.3058C61.8139 79.344 61.4897 79.077 61.4612 78.7243C61.2228 76.3984 61.9473 74.3679 62.4907 73.2144H2.17729C1.81504 73.2144 1.51953 72.9189 1.51953 72.5567C1.51953 72.1944 1.81504 71.8989 2.17729 71.8989H64.8167L64.1494 72.9189C64.1398 72.9285 62.4526 75.4451 62.7671 78.5909Z" fill="white"/>
<path d="M1.58961 72.2711C1.74214 71.947 2.14251 71.8135 2.46662 71.966C2.79073 72.1185 2.93372 72.5189 2.77167 72.843C2.76213 72.8621 -0.364591 79.2967 2.53335 83.9105H68.8428C69.9009 83.9105 70.8637 83.4815 71.5596 82.7856C72.246 82.0898 72.675 81.1365 72.675 80.0783V13.1588C72.675 12.2341 72.3032 11.4048 71.7026 10.8042C71.1021 10.2037 70.2727 9.83188 69.348 9.83188H58.9574C58.5952 9.83188 58.2996 9.53637 58.2996 9.17412C58.2996 8.80235 58.5952 8.50684 58.9574 8.50684H69.348C70.635 8.50684 71.798 9.03113 72.6368 9.87001C73.4757 10.7089 74 11.8719 74 13.1588V80.0783C74 81.4987 73.4185 82.7856 72.4843 83.7198C71.5501 84.654 70.2632 85.226 68.8428 85.226H1.83746L1.63728 84.9496C-2.01375 79.6875 1.58008 72.2997 1.58961 72.2711Z" fill="white"/>
<path d="M25.0883 17.3912C24.1255 17.3912 23.2485 17.0003 22.6194 16.3616C21.9807 15.7325 21.5898 14.8555 21.5898 13.8927V4.44577C21.5898 3.48296 21.9807 2.60596 22.6194 1.9768C23.2485 1.33811 24.1255 0.947266 25.0883 0.947266C26.0511 0.947266 26.9282 1.33811 27.5573 1.9768C28.1865 2.60596 28.5773 3.48296 28.5773 4.44577V13.8927C28.5773 14.8555 28.1865 15.7325 27.5573 16.3616C26.9282 17.0003 26.0511 17.3912 25.0883 17.3912ZM23.5536 15.437C23.9444 15.8278 24.4878 16.0661 25.0883 16.0661C25.6889 16.0661 26.2323 15.8278 26.6231 15.437C27.0235 15.0366 27.2618 14.4932 27.2618 13.8927V4.44577C27.2618 3.84521 27.0235 3.30184 26.6231 2.90147V2.911C26.2323 2.51063 25.6889 2.27231 25.0883 2.27231C24.4878 2.27231 23.9444 2.51063 23.5536 2.90147H23.544C23.1532 3.30184 22.9149 3.84521 22.9149 4.44577V13.8927C22.9149 14.4932 23.1532 15.0366 23.5536 15.437Z" fill="white"/>
<path d="M40.604 17.3912C39.6412 17.3912 38.7642 17.0003 38.135 16.3616C37.4963 15.7325 37.1055 14.8555 37.1055 13.8927V4.44577C37.1055 3.48296 37.4963 2.60596 38.135 1.9768C38.7642 1.33811 39.6412 0.947266 40.604 0.947266C41.5668 0.947266 42.4342 1.33811 43.0729 1.9768C43.7021 2.60596 44.0929 3.48296 44.0929 4.44577V13.8927C44.0929 14.8555 43.7021 15.7325 43.0729 16.3616C42.4342 17.0003 41.5668 17.3912 40.604 17.3912ZM39.0597 15.437C39.46 15.8278 40.0034 16.0661 40.604 16.0661C41.2045 16.0661 41.7479 15.8278 42.1387 15.437C42.5391 15.0366 42.7774 14.4932 42.7774 13.8927V4.44577C42.7774 3.84521 42.5391 3.30184 42.1387 2.911C41.7479 2.51063 41.2045 2.27231 40.604 2.27231C40.0034 2.27231 39.46 2.51063 39.0597 2.911C38.6688 3.30184 38.4305 3.84521 38.4305 4.44577V13.8927C38.4305 14.4932 38.6688 15.0366 39.0597 15.437Z" fill="white"/>
<path d="M56.1313 17.3912C55.159 17.3912 54.2915 17.0003 53.6528 16.3616C53.0237 15.7325 52.6328 14.8555 52.6328 13.8927V4.44577C52.6328 3.48296 53.0237 2.60596 53.6528 1.9768C54.2915 1.33811 55.159 0.947266 56.1313 0.947266C57.0941 0.947266 57.9616 1.33811 58.6003 1.9768C59.2294 2.60596 59.6203 3.48296 59.6203 4.44577V13.8927C59.6203 14.8555 59.2294 15.7325 58.6003 16.3616C57.9616 17.0003 57.0941 17.3912 56.1313 17.3912ZM54.587 15.437C54.9779 15.8278 55.5212 16.0661 56.1313 16.0661C56.7319 16.0661 57.2752 15.8278 57.6661 15.437C58.0569 15.0366 58.3048 14.4932 58.3048 13.8927V4.44577C58.3048 3.84521 58.0569 3.30184 57.6661 2.911C57.2752 2.51063 56.7319 2.27231 56.1313 2.27231C55.5212 2.27231 54.9779 2.51063 54.587 2.911C54.1962 3.30184 53.9483 3.84521 53.9483 4.44577V13.8927C53.9483 14.4932 54.1962 15.0366 54.587 15.437Z" fill="white"/>
<path d="M22.2574 8.50684C22.6197 8.50684 22.9152 8.80235 22.9152 9.17412C22.9152 9.53637 22.6197 9.83188 22.2574 9.83188H11.8573C10.9421 9.83188 10.1033 10.2037 9.50269 10.8042C8.90213 11.4048 8.53036 12.2341 8.53036 13.1588V68.6486C8.53036 69.0109 8.23484 69.3064 7.8726 69.3064C7.51036 69.3064 7.21484 69.0109 7.21484 68.6486V13.1588C7.21484 11.8719 7.72961 10.7089 8.56849 9.87001C9.4169 9.03113 10.5799 8.50684 11.8573 8.50684H22.2574Z" fill="white"/>
<path d="M27.9195 9.83188C27.5572 9.83188 27.2617 9.53637 27.2617 9.17412C27.2617 8.80235 27.5572 8.50684 27.9195 8.50684H37.7668C38.1385 8.50684 38.434 8.80235 38.434 9.17412C38.434 9.53637 38.1385 9.83188 37.7668 9.83188H27.9195Z" fill="white"/>
<path d="M43.4351 9.83188C43.0729 9.83188 42.7773 9.53637 42.7773 9.17412C42.7773 8.80235 43.0729 8.50684 43.4351 8.50684H53.2824C53.6446 8.50684 53.9401 8.80235 53.9401 9.17412C53.9401 9.53637 53.6446 9.83188 53.2824 9.83188H43.4351Z" fill="white"/>
<path d="M40.2977 43.3843C42.231 43.4343 43.6977 43.9093 44.6977 44.8093C45.7143 45.6926 46.2227 46.8676 46.2227 48.3343C46.2227 49.3176 45.9893 50.1926 45.5227 50.9593C45.056 51.7093 44.356 52.3009 43.4227 52.7343C42.506 53.1676 41.3977 53.3843 40.0977 53.3843C38.831 53.3843 37.6393 53.1759 36.5227 52.7593C35.406 52.3259 34.5393 51.7509 33.9227 51.0343L34.5727 50.0593C35.1393 50.6926 35.906 51.2093 36.8727 51.6093C37.856 52.0093 38.931 52.2093 40.0977 52.2093C41.6477 52.2093 42.8393 51.8676 43.6727 51.1843C44.506 50.4843 44.9227 49.5343 44.9227 48.3343C44.9227 47.1176 44.4977 46.1676 43.6477 45.4843C42.7977 44.8009 41.5227 44.4593 39.8227 44.4593H38.7227V43.5343L43.8977 36.9093H34.5727V35.7593H45.5477V36.6593L40.2977 43.3843Z" fill="#EE1D24"/>
</svg>
