<svg width="70" height="70" viewBox="0 0 70 70" fill="none" xmlns="http://www.w3.org/2000/svg">
<path d="M64.5 21.5C64.5 30.3366 57.3366 37.5 48.5 37.5C39.6634 37.5 32.5 30.3366 32.5 21.5C32.5 12.6634 39.6634 5.5 48.5 5.5C57.3366 5.5 64.5 12.6634 64.5 21.5Z" fill="#C7E3E9"/>
<path d="M48.5 10.5V21.5H57.5M64.5 21.5C64.5 30.3366 57.3366 37.5 48.5 37.5C39.6634 37.5 32.5 30.3366 32.5 21.5C32.5 12.6634 39.6634 5.5 48.5 5.5C57.3366 5.5 64.5 12.6634 64.5 21.5Z" stroke="#777676" stroke-linecap="round" stroke-linejoin="round"/>
<path d="M16.5 40.5L41.716 45.0029C43.2442 45.2757 44.2498 46.7509 43.9454 48.2731M16.5 40.5V55.5M16.5 40.5C16.5 39.3954 15.6046 38.5 14.5 38.5H7.5C6.39543 38.5 5.5 39.3954 5.5 40.5V56.5C5.5 57.6046 6.39543 58.5 7.5 58.5H14.5C15.6046 58.5 16.5 57.6046 16.5 56.5V55.5M28.5 50.5H41.229C42.5495 50.5 43.6864 49.568 43.9454 48.2731M43.9454 48.2731L53.0078 46.4191C55.9182 45.8236 58.9441 46.2221 61.6012 47.5506C62.3835 47.9418 62.3835 49.0582 61.6012 49.4494L44.4584 58.0208C39.9828 60.2586 34.831 60.7374 30.0197 59.3628L16.5 55.5" stroke="#777676" stroke-linecap="round" stroke-linejoin="round"/>
</svg>
