<svg width="70" height="70" viewBox="0 0 70 70" fill="none" xmlns="http://www.w3.org/2000/svg">
<path d="M55.5 64.5H54.5L50 60L45.5 64.5H44.5L40 60L35.5 64.5H34.5L30 60L25.5 64.5H24.5L15.5 55.5V54.5L20 50L15.5 45.5V44.5L20 40L15.5 35.5V34.5L20 30L15.5 25.5V24.5L24.5 15.5H25.5L30 20L34.5 15.5H35.5L40 20L44.5 15.5H45.5L50 20L54.5 15.5H55.5L64.5 24.5V25.5L60 30L64.5 34.5V35.5L60 40L64.5 44.5V45.5L60 50L64.5 54.5V55.5L55.5 64.5Z" fill="#F5CED0" stroke="#777676" stroke-linecap="round" stroke-linejoin="round"/>
<path d="M44.5 12.6633L37.3367 5.5H36.5408L32.9592 9.08163L29.3776 5.5H28.5816L25 9.08163L21.4184 5.5H20.6224L17.0408 9.08163L13.4592 5.5H12.6633L5.5 12.6633V13.4592L9.08163 17.0408L5.5 20.6224V21.4184L9.08163 25L5.5 28.5816V29.3776L9.08163 32.9592L5.5 36.5408V37.3367L12.6633 44.5" stroke="#777676" stroke-linecap="round" stroke-linejoin="round"/>
</svg>
