<svg width="75" height="100" viewBox="0 0 75 100" fill="none" xmlns="http://www.w3.org/2000/svg">
<path d="M40.047 75.3307C39.9495 74.9798 40.1639 74.6094 40.5246 74.5119C40.8756 74.4144 41.246 74.6191 41.3435 74.9798L47.2801 96.728L52.7293 87.1943C52.9145 86.8726 53.324 86.7556 53.6457 86.9408L63.0526 92.312L56.9795 70.0667C56.8821 69.7158 57.0965 69.3454 57.4474 69.2479C57.8081 69.1504 58.1786 69.3551 58.276 69.7158L64.7683 93.4916C64.8171 93.667 64.8073 93.862 64.7098 94.0277C64.5246 94.3494 64.1152 94.4664 63.7935 94.2812L53.5677 88.442L47.6505 98.8043C47.5628 98.9506 47.4166 99.0675 47.2411 99.1163C46.8804 99.2138 46.51 99.009 46.4125 98.6484L40.047 75.3307Z" fill="white"/>
<path d="M33.5032 74.9798C33.6007 74.6191 33.9711 74.4144 34.3318 74.5119C34.6828 74.6094 34.8972 74.9798 34.7997 75.3307L28.4342 98.6484C28.3367 99.009 27.9663 99.2138 27.6153 99.1163C27.4301 99.0675 27.2936 98.9506 27.2059 98.8043L21.2888 88.442L11.0532 94.2812C10.7315 94.4664 10.3221 94.3494 10.1369 94.0277C10.0491 93.862 10.0296 93.667 10.0881 93.4916L16.5804 69.7158C16.6779 69.3551 17.0483 69.1504 17.3992 69.2479C17.7599 69.3454 17.9744 69.7158 17.8769 70.0667L11.8038 92.312L21.201 86.9408C21.5325 86.7556 21.9419 86.8726 22.1174 87.1943L27.5666 96.728L33.5032 74.9798Z" fill="white"/>
<path d="M26.6232 37.6346C26.36 37.3812 26.36 36.9523 26.6232 36.6891C26.8864 36.4259 27.3153 36.4259 27.5785 36.6891L36.4396 45.5502L47.3478 29.9726C47.5623 29.6704 47.9814 29.5924 48.2836 29.8069C48.5858 30.0213 48.6638 30.4405 48.4493 30.7427L37.1025 46.9441C37.0732 46.9831 37.044 47.0319 37.005 47.0611C36.7418 47.3243 36.3226 47.3243 36.0594 47.0709L26.6232 37.6346Z" fill="white"/>
<path d="M37.5012 61.2154C24.9358 61.2154 14.749 51.0383 14.749 38.4729C14.749 25.9075 24.9358 15.7304 37.5012 15.7304C50.0569 15.7304 60.2437 25.9075 60.2437 38.4729C60.2437 51.0383 50.0569 61.2154 37.5012 61.2154ZM72.4484 33.2381C70.1283 31.4152 69.2803 28.2763 70.3818 25.5273C71.9902 21.5306 69.4265 17.0757 65.1568 16.4713C62.2226 16.0424 59.922 13.7418 59.5028 10.8173C58.8985 6.54763 54.4435 3.98387 50.4468 5.58257C47.6978 6.68411 44.5589 5.84577 42.7262 3.51595C40.065 0.123589 34.9277 0.123589 32.2664 3.51595C30.4435 5.84577 27.2949 6.68411 24.5556 5.58257C20.5491 3.98387 16.0942 6.54763 15.4898 10.8173C15.0707 13.7418 12.7701 16.0424 9.84565 16.4713C5.57595 17.0757 3.00244 21.5306 4.61089 25.5273C5.71243 28.2763 4.87409 31.4152 2.54427 33.2381C-0.848091 35.8994 -0.848091 41.0464 2.54427 43.7077C4.87409 45.5306 5.71243 48.6695 4.61089 51.4185C3.00244 55.425 5.57595 59.8701 9.84565 60.4843C12.7701 60.9034 15.0707 63.204 15.4898 66.1285C16.0942 70.3982 20.5491 72.9717 24.5556 71.3632C27.2949 70.2617 30.4435 71.1 32.2664 73.4298C34.9277 76.8222 40.065 76.8222 42.7262 73.4298C44.5589 71.1 47.6978 70.2617 50.4468 71.3632C54.4435 72.9717 58.8985 70.3982 59.5028 66.1285C59.922 63.204 62.2226 60.9034 65.1568 60.4843C69.4265 59.8701 71.9902 55.425 70.3818 51.4185C69.2803 48.6695 70.1283 45.5306 72.4484 43.7077C75.8505 41.0464 75.8505 35.8994 72.4484 33.2381Z" fill="white"/>
</svg>
