<svg width="72" height="107" viewBox="0 0 72 107" fill="none" xmlns="http://www.w3.org/2000/svg">
<path d="M28.6201 78.2576L8.1077 98.7701L5.97266 106.392L13.595 104.257L34.1074 83.7449L28.6201 78.2576Z" fill="#D5E962"/>
<path d="M37.7717 85.0219C37.2329 85.431 36.5944 85.6006 35.9659 85.5507C35.3373 85.5008 34.7287 85.2314 34.2498 84.7625L27.6053 78.1179C27.1264 77.639 26.857 77.0304 26.8171 76.4019C26.7672 75.7733 26.9368 75.1249 27.3359 74.5861C31.8654 68.4902 36.784 62.7136 42.0617 57.2862C47.3495 51.8488 52.9864 46.7606 58.9526 42.0715C60.5489 40.8144 62.4943 40.2557 64.3999 40.3755C66.3155 40.4952 68.1811 41.2933 69.6278 42.74C71.0744 44.1766 71.8626 46.0523 71.9823 47.9678C72.1021 49.8734 71.5533 51.8189 70.2962 53.4152C65.5971 59.3714 60.5189 65.0083 55.0815 70.2961C49.6541 75.5738 43.8775 80.5024 37.7717 85.0219ZM36.0557 84.3036C36.3949 84.3335 36.7441 84.2437 37.0334 84.0242C43.0893 79.5346 48.826 74.646 54.2135 69.4081C59.611 64.1703 64.6493 58.5633 69.3085 52.647C70.3761 51.2901 70.845 49.644 70.7452 48.0377C70.6454 46.4214 69.967 44.8351 68.7498 43.6179C67.5227 42.3908 65.9463 41.7223 64.3301 41.6226C62.7138 41.5228 61.0676 41.9917 59.7208 43.0492C53.7945 47.7184 48.1975 52.7567 42.9497 58.1442C37.7118 63.5417 32.8331 69.2784 28.3336 75.3244C28.1241 75.6137 28.0343 75.9629 28.0542 76.3021C28.0841 76.6513 28.2238 76.9806 28.4832 77.2399L35.1278 83.8845C35.3872 84.134 35.7164 84.2836 36.0557 84.3036Z" fill="#777777"/>
<path d="M9.04923 36.7837C9.23879 37.073 9.15898 37.4621 8.86965 37.6517C8.5903 37.8313 8.2012 37.7515 8.01164 37.4621L3.48214 30.5581C3.30256 30.2688 3.38238 29.8797 3.6717 29.6901C3.95106 29.5006 4.34015 29.5904 4.52971 29.8697L9.04923 36.7837Z" fill="#777777"/>
<path d="M18.7129 30.4584C18.9024 30.7477 18.8226 31.1268 18.5333 31.3164C18.244 31.506 17.8648 31.4261 17.6753 31.1368L13.1458 24.2229C12.9562 23.9435 13.036 23.5544 13.3254 23.3648C13.6147 23.1753 14.0038 23.2551 14.1934 23.5444L18.7129 30.4584Z" fill="#777777"/>
<path d="M15.6044 36.5443C15.7939 36.8336 15.7141 37.2127 15.4248 37.4023C15.1355 37.5918 14.7464 37.512 14.5668 37.2227L6.32589 24.6518C6.14631 24.3625 6.22613 23.9734 6.51545 23.7838C6.79481 23.5943 7.1839 23.6741 7.37346 23.9634L15.6044 36.5443Z" fill="#777777"/>
<path d="M45.4213 21.0502C45.6508 20.7909 46.0399 20.7609 46.2993 20.9804C46.5587 21.2099 46.5886 21.599 46.3592 21.8584L40.5427 28.6227L41.5603 29.6403L41.5902 29.6703L42.5779 30.6679L49.3423 24.8415C49.6017 24.612 49.9908 24.6419 50.2202 24.9013C50.4397 25.1607 50.4098 25.5498 50.1504 25.7793L42.967 31.9749C42.7176 32.1944 42.3385 32.1844 42.109 31.955L40.7123 30.5582L40.6823 30.5283L39.2457 29.0916H39.2556C39.0262 28.8621 39.0062 28.493 39.2157 28.2436L45.4213 21.0502Z" fill="#777777"/>
<path d="M39.2465 28.2137C39.4959 27.9643 39.885 27.9643 40.1344 28.2137C40.3739 28.4531 40.3739 28.8522 40.1344 29.0916C37.2012 32.0248 33.3102 30.2789 32.0133 29.5705L1.50401 60.0698L6.31286 64.8787H6.32284L11.1317 69.6975L41.6409 39.1882C40.9625 37.8813 39.2664 33.9204 42.1098 31.0671C42.3593 30.8276 42.7484 30.8276 42.9878 31.077C43.2372 31.3165 43.2273 31.7056 42.9878 31.955C40.4038 34.539 42.6486 38.4699 42.918 38.9189C43.0976 39.1683 43.0776 39.5075 42.8581 39.737L11.5707 71.0144C11.3312 71.2638 10.9321 71.2638 10.6927 71.0144L5.4349 65.7666C5.4349 65.7566 0.655979 60.9777 0.216997 60.5387L0.187066 60.5088C-0.0623554 60.2693 -0.0623554 59.8703 0.187066 59.6308L31.4645 28.3434C31.674 28.1438 32.0033 28.1039 32.2527 28.2636C32.2627 28.2735 36.4131 31.0471 39.2465 28.2137Z" fill="#777777"/>
<path d="M10.5536 61.5264C10.3142 61.7659 9.91512 61.7659 9.67568 61.5264C9.43623 61.287 9.43623 60.8879 9.67568 60.6485L32.6225 37.7017C32.8619 37.4622 33.261 37.4622 33.5004 37.7017C33.7399 37.9411 33.7399 38.3402 33.5004 38.5796L10.5536 61.5264Z" fill="#777777"/>
<path d="M44.9597 18.2468C44.3311 18.8653 44.3311 19.8929 44.9597 20.5215L47.8131 23.3749L50.6764 26.2482C51.305 26.8668 52.3226 26.8668 52.9611 26.2482C53.2704 25.9289 53.44 25.49 53.43 25.051C53.3901 23.9036 53.889 22.7962 54.7669 22.0479C62.5289 15.5929 67.4675 10.814 70.0715 7.76108C71.6677 5.88543 71.548 3.11186 69.822 1.37588C68.0861 -0.350113 65.3025 -0.469835 63.4368 1.11649C60.3839 3.73042 55.605 8.66897 49.14 16.421C48.4017 17.3189 47.2943 17.8078 46.1469 17.7679C45.698 17.7579 45.269 17.9275 44.9597 18.2468Z" fill="#D5E962"/>
</svg>
