<svg width="80" height="76" viewBox="0 0 80 76" fill="none" xmlns="http://www.w3.org/2000/svg">
<path d="M57.4496 52.1584C57.1251 52.2061 56.8293 51.9771 56.7816 51.6526C56.7434 51.3282 56.9724 51.0228 57.2969 50.9846C57.7454 50.9274 58.194 50.8701 58.6425 50.8224C59.091 50.7747 59.53 50.7365 59.9594 50.7079C63.624 50.4502 67.4126 50.727 70.9627 51.7004C73.7779 52.4734 76.45 53.6758 78.8071 55.3936V6.66636C76.4309 4.77683 73.6729 3.49805 70.7432 2.72505C67.2981 1.80891 63.624 1.57988 60.0453 1.828C56.6671 2.06658 53.3365 2.7346 50.0537 3.61257C46.7518 4.50008 43.488 5.60708 40.2433 6.70454L40.0525 6.78088C33.5822 8.98534 27.0261 11.2184 20.1932 11.8101C16.5573 12.125 12.8069 11.8769 9.25683 10.9703C6.37481 10.2355 3.63593 9.05215 1.19289 7.3821V56.1379C3.64547 57.9702 6.47024 59.2013 9.44769 59.9456C12.8832 60.795 16.5382 60.9954 20.0883 60.69C20.5082 60.6518 20.9185 60.6136 21.3098 60.5659C21.7297 60.5182 22.14 60.4609 22.5409 60.4037C22.8653 60.356 23.1707 60.585 23.2184 60.9095C23.2661 61.2339 23.0371 61.5393 22.7126 61.587C22.2832 61.6443 21.8633 61.7016 21.4434 61.7493C21.0235 61.797 20.6036 61.8352 20.1932 61.8733C16.5287 62.1883 12.7401 61.9878 9.1614 61.1003C5.93582 60.2987 2.88202 58.9436 0.238578 56.9014L0 56.72V4.99632L0.963855 5.74068C3.49278 7.68748 6.44161 9.02352 9.54312 9.81559C12.9596 10.6936 16.5764 10.9226 20.0883 10.6172C26.7875 10.0446 33.2673 7.83063 39.6708 5.64525L39.8616 5.57845C43.1254 4.47145 46.4177 3.3549 49.7483 2.46739C53.0979 1.57034 56.4953 0.883232 59.9594 0.644654C63.6526 0.377446 67.4699 0.625568 71.0485 1.57034C74.2264 2.41967 77.2229 3.82251 79.7805 5.93154L80 6.10332V57.8652L79.0266 57.0636C76.5836 55.0595 73.7111 53.6853 70.6477 52.8455C67.2408 51.9199 63.5858 51.6431 60.0453 51.9008C59.5968 51.9294 59.1674 51.9676 58.757 52.0057C58.318 52.0535 57.879 52.1012 57.4496 52.1584Z" fill="#777777"/>
<path d="M36.1133 20.084V34.3032C36.1133 41.7564 30.0725 47.7877 22.6289 47.7877V74.5848H57.3754V20.084H36.1133Z" fill="#C7E3E9"/>
<path d="M37.1022 21.0765V34.3033C37.1022 38.3019 35.4799 41.9187 32.8651 44.5431C30.4602 46.9384 27.2251 48.5035 23.6178 48.7516V73.5828H56.3793V21.0765H37.1022ZM35.1172 34.3033V19.0916H58.3643V75.5773H21.6328V46.7952H22.6253C26.0704 46.7952 29.2005 45.3924 31.4527 43.1402C33.7144 40.8785 35.1172 37.7579 35.1172 34.3033Z" fill="#FEFEFE"/>
<path d="M14.118 20.7806C14.347 20.542 14.7192 20.542 14.9578 20.7711C15.1868 21.0096 15.1868 21.3818 14.9578 21.6109L11.236 25.3422C10.9974 25.5713 10.6252 25.5713 10.3866 25.3422C10.1576 25.1132 10.1576 24.7315 10.3866 24.5024L14.118 20.7806Z" fill="#777777"/>
<path d="M18.2788 23.2332C18.5078 23.0041 18.8895 23.0041 19.1186 23.2332C19.3572 23.4718 19.3572 23.8439 19.1186 24.0825L11.236 31.9651C10.9974 32.2037 10.6252 32.2037 10.3866 31.9651C10.1576 31.7361 10.1576 31.3544 10.3866 31.1253L18.2788 23.2332Z" fill="#777777"/>
<path d="M18.2732 29.8657C18.5022 29.6271 18.884 29.6271 19.113 29.8657C19.3516 30.0947 19.3516 30.4669 19.113 30.7055L15.8397 33.9788C15.6107 34.2078 15.2289 34.2078 14.9999 33.9788C14.7709 33.7402 14.7709 33.368 14.9999 33.1294L18.2732 29.8657Z" fill="#777777"/>
<path d="M29.2318 53.6948C28.9169 53.7998 28.5829 53.6376 28.4683 53.3226C28.3634 53.0173 28.5351 52.6737 28.8501 52.5687C29.1268 52.4733 29.4131 52.3683 29.6899 52.2633C29.9762 52.1488 30.2434 52.0343 30.5106 51.9198C30.8064 51.7862 31.1595 51.9198 31.2931 52.2156C31.4267 52.521 31.2931 52.8741 30.9973 53.0077C30.6919 53.1413 30.4056 53.2558 30.1193 53.3704C29.8235 53.4849 29.5276 53.5994 29.2318 53.6948Z" fill="#FEFEFE"/>
<path d="M34.4325 49.5627C33.9267 49.954 34.3084 50.7747 34.9573 50.6029C35.0337 50.5838 35.1005 50.5552 35.1577 50.4979C36.0739 49.7917 36.9328 49.0092 37.7153 48.1503C38.0684 47.759 37.7821 47.1387 37.2572 47.1483C37.095 47.1578 36.9518 47.2246 36.8373 47.3391C36.093 48.1503 35.2913 48.8851 34.4325 49.5627ZM43.1167 32.8622C43.1167 32.2228 42.2292 32.032 41.962 32.6427C41.9334 32.7095 41.9238 32.7859 41.9238 32.8622C41.9238 33.9883 41.9429 35.0667 41.8284 36.1832C41.7807 36.7749 42.525 37.0707 42.8972 36.6031C42.964 36.5172 43.0022 36.4123 43.0213 36.2978C43.1358 35.143 43.1167 34.036 43.1167 32.8622ZM41.9811 41.0407C42.1815 40.4395 41.4276 39.9719 40.979 40.4395C40.9218 40.4967 40.8741 40.5731 40.855 40.6494C40.5019 41.6705 40.0343 42.6916 39.5094 43.6364C39.2136 44.1613 39.8243 44.7625 40.3587 44.419C40.4446 44.3712 40.5019 44.2949 40.5591 44.209C41.1126 43.207 41.5993 42.1286 41.9811 41.0407Z" fill="#FEFEFE"/>
<path d="M43.1148 28.3294C43.1148 28.6634 42.8476 28.9306 42.5135 28.9306C42.1891 28.9306 41.9219 28.6634 41.9219 28.3294V26.4875C41.9219 26.1631 42.1891 25.8959 42.5135 25.8959C42.8476 25.8959 43.1148 26.1631 43.1148 26.4875V28.3294Z" fill="#FEFEFE"/>
</svg>
