<svg width="89" height="63" viewBox="0 0 89 63" fill="none" xmlns="http://www.w3.org/2000/svg">
<path d="M31.9453 45.3912V29.0362L46.106 20.8586L60.2752 29.0362V45.3912L46.106 53.5687L31.9453 45.3912Z" fill="white"/>
<path d="M32.258 29.5722C31.9771 29.7339 31.6197 29.6403 31.458 29.3595C31.2963 29.0787 31.3899 28.7213 31.6708 28.5596L45.8144 20.3906C46.0016 20.2885 46.2314 20.297 46.4016 20.3991L60.5453 28.5596C60.8261 28.7213 60.9282 29.0787 60.7665 29.3595C60.6048 29.6403 60.2474 29.7339 59.9666 29.5722L46.1038 21.5819L32.258 29.5722Z" fill="white"/>
<path d="M31.375 29.0703C31.375 28.7384 31.6388 28.4746 31.9622 28.4746C32.2941 28.4746 32.5579 28.7384 32.5579 29.0703V45.0594L46.1144 52.888L59.6708 45.0594V29.0703C59.6708 28.7384 59.9346 28.4746 60.258 28.4746C60.5814 28.4746 60.8452 28.7384 60.8452 29.0703V45.3998C60.8452 45.604 60.7346 45.7997 60.5474 45.9103L46.4377 54.0538C46.259 54.1729 46.0122 54.1899 45.8165 54.0708L31.7069 45.9273C31.5112 45.8337 31.375 45.6295 31.375 45.3998V29.0703Z" fill="white"/>
<path d="M45.5156 37.2307C45.5156 36.9073 45.7794 36.6436 46.1028 36.6436C46.4347 36.6436 46.6985 36.9073 46.6985 37.2307V48.0801C46.6985 48.4035 46.4347 48.6673 46.1028 48.6673C45.7794 48.6673 45.5156 48.4035 45.5156 48.0801V37.2307Z" fill="white"/>
<path d="M60.5555 29.5721C60.2747 29.7338 59.9088 29.6402 59.7471 29.3594C59.5854 29.0786 59.679 28.7212 59.9598 28.5595L75.848 19.3864C76.1289 19.2162 76.4863 19.3183 76.648 19.5991C76.8097 19.8799 76.7161 20.2373 76.4352 20.399L60.5555 29.5721Z" fill="white"/>
<path d="M76.4337 20.3992C76.1529 20.5608 75.7955 20.4672 75.6338 20.1864C75.4721 19.9056 75.5657 19.5482 75.8466 19.3865L80.2292 16.8337C80.51 16.6721 80.876 16.7657 81.0377 17.0465C81.1994 17.3273 81.0972 17.6847 80.8249 17.8464L76.4337 20.3992Z" fill="white"/>
<path d="M74.233 5.75448V13.0215L80.5304 16.6635L86.8278 13.0215V5.75448L80.5304 2.11247L74.233 5.75448ZM73.0586 13.3619V5.41411C73.0586 5.20988 73.1607 5.01417 73.3479 4.90354L80.2325 0.929661C80.4027 0.827548 80.6325 0.819039 80.8282 0.929661L87.6703 4.88653C87.866 4.98013 88.0022 5.18435 88.0022 5.41411V13.3619C88.0022 13.5661 87.9001 13.7618 87.7128 13.8724L80.8282 17.8463C80.6495 17.9484 80.4283 17.9569 80.2325 17.8463L73.3905 13.8895C73.1948 13.7959 73.0586 13.6001 73.0586 13.3619Z" fill="white"/>
<path d="M19.4268 37.9794C19.7076 37.8263 20.065 37.9199 20.2267 38.2007C20.3884 38.49 20.2863 38.8474 20.0054 39.0006L10.6359 44.3445C10.4402 44.4551 10.2019 44.4466 10.0232 44.3275L0.798363 39.0006C0.517533 38.8389 0.423923 38.4815 0.577103 38.2007C0.738793 37.9199 1.10472 37.8263 1.38555 37.988L10.3466 43.1617L19.4268 37.9794Z" fill="white"/>
<path d="M0.5 38.49C0.5 38.1666 0.76381 37.9028 1.08719 37.9028C1.41057 37.9028 1.67438 38.1666 1.67438 38.49V48.8459L10.3461 53.8494L19.3156 48.6757C19.5965 48.514 19.9539 48.6076 20.1156 48.8885C20.2773 49.1693 20.1752 49.5267 19.8943 49.6883L10.6439 55.0322C10.4652 55.1343 10.244 55.1429 10.0567 55.0322L0.848911 49.7224C0.64467 49.6288 0.5 49.4245 0.5 49.1863V38.49Z" fill="white"/>
<path d="M24.2656 41.3748C24.2656 41.0514 24.5294 40.7876 24.8528 40.7876C25.1847 40.7876 25.4485 41.0514 25.4485 41.3748V56.8023C25.4485 57.9255 25.8995 58.9382 26.6399 59.6785C27.3718 60.4103 28.393 60.8698 29.5163 60.8698H62.799C63.8968 60.8698 64.8839 60.4273 65.6073 59.704L65.6328 59.6785C66.3392 58.9637 66.7647 57.9851 66.7647 56.9044V24.9602C66.7647 24.6368 67.0285 24.373 67.3519 24.373C67.6837 24.373 67.9476 24.6368 67.9476 24.9602V56.9044C67.9476 58.3085 67.3859 59.5764 66.4668 60.5039L66.4413 60.5379C65.5052 61.4739 64.2202 62.0441 62.799 62.0441H29.5163C28.0696 62.0441 26.7506 61.4569 25.8059 60.5124C24.8528 59.5593 24.2656 58.2489 24.2656 56.8023V41.3748Z" fill="white"/>
<path d="M67.9476 18.8675C67.9476 19.1908 67.6837 19.4546 67.3519 19.4546C67.0285 19.4546 66.7647 19.1908 66.7647 18.8675V6.15449C66.7647 5.06529 66.3307 4.08671 65.6243 3.38043C64.9095 2.67415 63.9308 2.23167 62.8415 2.23167H29.3631C28.2824 2.23167 27.3037 2.67415 26.5889 3.38043C25.8825 4.08671 25.4485 5.06529 25.4485 6.15449V34.5758C25.4485 34.8991 25.1847 35.1629 24.8528 35.1629C24.5294 35.1629 24.2656 34.8991 24.2656 34.5758V6.15449C24.2656 4.75044 24.8358 3.47403 25.7634 2.54651C26.691 1.6275 27.959 1.05737 29.3631 1.05737H62.8415C64.2542 1.05737 65.5307 1.6275 66.4498 2.54651C67.3689 3.47403 67.9476 4.75044 67.9476 6.15449V18.8675Z" fill="white"/>
<path d="M37.6523 1.64452C37.6523 1.32116 37.9162 1.05737 38.2395 1.05737C38.5714 1.05737 38.8352 1.32116 38.8352 1.64452V3.84843C38.8352 4.35898 39.0395 4.827 39.3714 5.15886C39.7033 5.49072 40.1628 5.69495 40.6819 5.69495H51.5322C52.0513 5.69495 52.5108 5.49072 52.8427 5.15035C53.1831 4.81849 53.3874 4.35898 53.3874 3.84843V1.64452C53.3874 1.32116 53.6512 1.05737 53.9746 1.05737C54.2979 1.05737 54.5618 1.32116 54.5618 1.64452V3.84843C54.5618 4.68234 54.2214 5.43967 53.6767 5.98426C53.1236 6.53737 52.3662 6.86923 51.5322 6.86923H40.6819C39.8394 6.86923 39.0905 6.52886 38.5374 5.98426C37.9927 5.43967 37.6523 4.68234 37.6523 3.84843V1.64452Z" fill="white"/>
<path d="M73.36 5.93322C73.0706 5.77154 72.9685 5.41415 73.1217 5.13334C73.2834 4.84402 73.6408 4.74191 73.9216 4.90359L80.8062 8.70726C81.0956 8.86043 81.1977 9.21782 81.036 9.50713C80.8828 9.78794 80.5254 9.89005 80.2446 9.73689L73.36 5.93322Z" fill="white"/>
<path d="M31.6708 29.5722C31.3899 29.4105 31.2963 29.0531 31.458 28.7723C31.6197 28.4915 31.9771 28.3979 32.258 28.5596L46.4016 36.72C46.6824 36.8902 46.7761 37.2476 46.6144 37.5284C46.4527 37.8092 46.0953 37.9028 45.8144 37.7412L31.6708 29.5722Z" fill="white"/>
<path d="M1.38555 39.0008C1.10472 39.1624 0.738793 39.0688 0.577103 38.788C0.423923 38.5072 0.517533 38.1498 0.798364 37.9881L10.0573 32.6443C10.2445 32.5336 10.4657 32.5421 10.6359 32.6443L32.2514 44.8892C32.5407 45.0509 32.6343 45.4083 32.4726 45.6891C32.3195 45.9699 31.962 46.072 31.6727 45.9104L10.3466 33.8271L1.38555 39.0008Z" fill="white"/>
</svg>
