<svg width="87" height="75" viewBox="0 0 87 75" fill="none" xmlns="http://www.w3.org/2000/svg">
<path d="M42.0583 47.4237C41.859 47.6592 41.4966 47.6773 41.2611 47.478C41.0346 47.2696 41.0074 46.9163 41.2158 46.6808C44.0603 43.4195 47.5843 40.7743 51.5703 38.9715C55.4023 37.2231 59.6692 36.2538 64.1534 36.2538H69.462C74.3087 36.2538 78.6933 38.2196 81.8639 41.3903C85.0346 44.561 87.0005 48.9456 87.0005 53.7922V66.7195C87.0005 67.0275 86.7468 67.2812 86.4388 67.2812H74.0912C73.7832 67.2812 73.5296 67.0275 73.5296 66.7195C73.5296 66.4025 73.7832 66.1488 74.0912 66.1488H85.8681V53.7922C85.8681 49.2627 84.0291 45.1589 81.0667 42.1875C78.0954 39.2252 73.9916 37.3862 69.462 37.3862H64.1534C59.8322 37.3862 55.7284 38.3193 52.0323 39.9952C48.1913 41.7436 44.8032 44.2892 42.0583 47.4237Z" fill="#777777"/>
<path d="M76.8541 59.128C77.0443 59.3725 76.9991 59.7259 76.7545 59.9252C76.5099 60.1154 76.1566 60.0701 75.9663 59.8255C74.9245 58.5029 73.5838 57.4158 72.0528 56.6639C70.5761 55.9482 68.9274 55.5496 67.179 55.5496C64.0989 55.5496 61.3087 56.7998 59.2885 58.8199C57.2593 60.8492 56.0091 63.6394 56.0091 66.7195C56.0091 67.0275 55.7555 67.2811 55.4475 67.2811H34.2582C33.9412 67.2811 33.6875 67.0275 33.6875 66.7195C33.6875 63.6666 34.1405 60.7224 34.9739 57.9412C35.8345 55.0695 37.1118 52.3699 38.7334 49.9239C38.9055 49.6612 39.2588 49.5887 39.5216 49.7608C39.7752 49.933 39.8477 50.2863 39.6756 50.549C38.1174 52.9043 36.8854 55.4953 36.061 58.2673C35.3091 60.7676 34.8833 63.4129 34.8289 66.1488H54.8948C55.0398 62.9871 56.3805 60.1245 58.4823 58.0227C60.7108 55.7942 63.7909 54.4172 67.179 54.4172C69.0995 54.4172 70.9204 54.8611 72.551 55.6493C74.236 56.4736 75.7036 57.6694 76.8541 59.128Z" fill="#777777"/>
<path d="M67.1781 73.0701C68.9265 73.0701 70.5119 72.3544 71.6624 71.2039C72.8129 70.0534 73.5286 68.4681 73.5286 66.7197C73.5286 64.9622 72.8129 63.3769 71.6624 62.2263L71.6352 62.1992C70.4938 61.0668 68.9175 60.3602 67.1781 60.3602C65.4297 60.3602 63.8353 61.0758 62.6939 62.2263C61.5434 63.3769 60.8277 64.9622 60.8277 66.7197C60.8277 68.4681 61.5343 70.0534 62.6848 71.2039C63.8353 72.3544 65.4297 73.0701 67.1781 73.0701ZM72.4686 72.0102C71.1098 73.36 69.2436 74.2025 67.1781 74.2025C65.1127 74.2025 63.2465 73.36 61.8876 72.0102C60.5287 70.6513 59.6953 68.7761 59.6953 66.7197C59.6953 64.6542 60.5378 62.7789 61.8876 61.4291C63.2465 60.0703 65.1127 59.2278 67.1781 59.2278C69.2255 59.2278 71.0826 60.0612 72.4324 61.3929L72.4686 61.4291C73.8184 62.7789 74.6609 64.6542 74.6609 66.7197C74.6609 68.7761 73.8184 70.6513 72.4686 72.0102Z" fill="#777777"/>
<path d="M68.2036 66.7196C68.2036 67.0004 68.0858 67.2541 67.9047 67.4353C67.7144 67.6255 67.4608 67.7433 67.1799 67.7433C66.8991 67.7433 66.6454 67.6255 66.4552 67.4353C66.274 67.2541 66.1562 67.0004 66.1562 66.7196C66.1562 66.4297 66.274 66.1761 66.4552 65.9949C66.6454 65.8046 66.8991 65.6959 67.1799 65.6959C67.4608 65.6959 67.7144 65.8046 67.9047 65.9949C68.0858 66.1761 68.2036 66.4297 68.2036 66.7196Z" fill="#777777"/>
<path d="M2.73715 61.4744C2.46538 61.6284 2.12113 61.5378 1.96712 61.266C1.81312 60.9942 1.91277 60.65 2.18454 60.496C7.90989 57.2619 13.6443 56.9992 15.3021 56.9992L24.5515 14.1315C25.0406 11.8577 25.9828 9.62007 27.2964 7.64519C28.5737 5.72466 30.1953 4.04873 32.0886 2.79857L32.1249 2.78045C33.6468 1.77489 35.368 1.05922 37.1527 0.678742C38.892 0.316378 40.6948 0.271083 42.4432 0.615329C44.2459 0.968634 45.9853 1.76583 47.4438 2.88916C48.8751 3.98531 50.0438 5.39853 50.7957 7.04729C51.6835 8.97688 51.9371 11.0967 51.7378 13.1984C51.5113 15.5447 50.7141 17.8729 49.5908 19.9384C47.8696 23.0819 45.487 25.7272 43.1135 28.3633C42.5881 28.9431 42.0718 29.5229 41.5282 30.1389L41.501 30.1661C40.0425 31.8239 38.4662 33.672 37.2614 35.6559C36.0746 37.6127 35.2412 39.7144 35.2412 41.9339C35.2412 43.1206 35.4767 44.2711 35.9116 45.3401C36.3555 46.4091 37.0077 47.3875 37.8412 48.2209L37.8683 48.2571L39.499 49.8787C39.7164 50.1052 39.7164 50.4585 39.499 50.6759C39.2725 50.9024 38.9192 50.9024 38.7018 50.6759L37.0711 49.0543L37.044 49.0272C36.1018 48.085 35.368 46.9798 34.8698 45.7659C34.3715 44.561 34.1088 43.2656 34.1088 41.9339C34.1088 39.4879 35.0057 37.1869 36.292 35.0671C37.5513 33.0016 39.1638 31.1173 40.6495 29.4233L40.6767 29.3961C41.184 28.8163 41.7275 28.2184 42.2711 27.6114C44.6083 25.0205 46.9546 22.4115 48.5943 19.3948C49.6542 17.4562 50.3971 15.273 50.6145 13.0897C50.7957 11.1692 50.5692 9.25771 49.772 7.5093C49.1016 6.04173 48.0417 4.77346 46.7553 3.78601C45.4327 2.76234 43.8655 2.04667 42.2258 1.7296C40.6223 1.41253 38.9735 1.44877 37.3791 1.78395C35.7304 2.13726 34.145 2.79857 32.7409 3.7226L32.7137 3.74072C30.9472 4.90028 29.4343 6.47657 28.2385 8.27027C27.0065 10.1274 26.1096 12.2291 25.6567 14.367L16.3077 57.6967C16.2533 57.9594 16.0087 58.1497 15.7279 58.1406C15.7098 58.1406 9.24158 57.8054 2.73715 61.4744Z" fill="#777777"/>
<path d="M15.197 66.1488V61.9454C13.0953 62.0632 5.84803 62.7064 2.3784 66.1488H15.197ZM16.3294 61.3566V66.7196C16.3294 67.0276 16.0758 67.2812 15.7587 67.2812H1.15542C1.04671 67.2812 0.928941 67.245 0.829291 67.1725C0.575636 66.9913 0.521282 66.6471 0.693405 66.3934C4.39858 61.2116 14.8981 60.8221 15.6953 60.7949C15.7134 60.7949 15.7406 60.7949 15.7587 60.7949C16.0758 60.7949 16.3294 61.0486 16.3294 61.3566Z" fill="#777777"/>
<path d="M36.9375 64.4366L39.8274 64.4276C46.0872 64.4095 51.8397 61.2659 55.4996 56.1929C60.6089 49.0905 72.3767 43.5373 78.401 44.1171C82.1424 44.4704 77.8393 42.1694 75.1941 41.4628C65.1928 38.7813 44.1848 35.9367 36.9375 64.4366Z" fill="#F5CED0"/>
</svg>
