<svg width="251" height="60" viewBox="0 0 251 60" fill="none" xmlns="http://www.w3.org/2000/svg">
<g clip-path="url(#clip0_30_238)">
<path d="M13.925 50.05C13.925 51.5875 13.4142 52.7938 12.3925 53.6688C11.3709 54.5438 9.92667 55.0188 8.05993 55.0938V58.6375H6.75448V55.1125C4.90036 55.0375 3.46247 54.5625 2.44081 53.6875C1.43177 52.8 0.927246 51.5875 0.927246 50.05C0.927246 48.525 1.43177 47.3312 2.44081 46.4687C3.46247 45.6062 4.90036 45.1375 6.75448 45.0625V41.0875H8.05993V45.0625C9.92667 45.15 11.3709 45.625 12.3925 46.4875C13.4142 47.35 13.925 48.5375 13.925 50.05ZM2.25162 50.05C2.25162 51.225 2.63001 52.1438 3.38679 52.8062C4.15619 53.4688 5.27875 53.8438 6.75448 53.9313V46.2437C5.29137 46.3187 4.17511 46.6875 3.40571 47.35C2.63632 48 2.25162 48.9 2.25162 50.05ZM8.05993 53.9313C9.53566 53.8563 10.6582 53.4875 11.4276 52.825C12.2096 52.1625 12.6006 51.2375 12.6006 50.05C12.6006 48.8875 12.2096 47.9813 11.4276 47.3313C10.6582 46.6813 9.53566 46.3187 8.05993 46.2437V53.9313ZM26.5671 45.0625C27.8662 45.0625 28.8627 45.3875 29.5564 46.0375C30.2501 46.675 30.597 47.625 30.597 48.8875V55H29.3104V53.4625C29.0077 53.975 28.5599 54.375 27.9671 54.6625C27.3869 54.95 26.6932 55.0938 25.886 55.0938C24.776 55.0938 23.8931 54.8313 23.2372 54.3063C22.5814 53.7813 22.2534 53.0875 22.2534 52.225C22.2534 51.3875 22.5561 50.7125 23.1616 50.2C23.7796 49.6875 24.7571 49.4312 26.0941 49.4312H29.2537V48.8312C29.2537 47.9812 29.014 47.3375 28.5347 46.9C28.0554 46.45 27.3554 46.225 26.4346 46.225C25.804 46.225 25.1986 46.3313 24.6184 46.5438C24.0382 46.7438 23.5399 47.025 23.1237 47.3875L22.5183 46.3938C23.0228 45.9688 23.6282 45.6437 24.3346 45.4187C25.0409 45.1812 25.7851 45.0625 26.5671 45.0625ZM26.0941 54.0438C26.8509 54.0438 27.5005 53.875 28.0428 53.5375C28.5852 53.1875 28.9888 52.6875 29.2537 52.0375V50.425H26.1319C24.4292 50.425 23.5778 51.0125 23.5778 52.1875C23.5778 52.7625 23.7985 53.2188 24.24 53.5563C24.6814 53.8813 25.2995 54.0438 26.0941 54.0438ZM45.4299 45.3813C46.3507 45.3813 47.1705 45.5875 47.8895 46C48.621 46.4 49.1886 46.9688 49.5922 47.7063C49.9959 48.4313 50.1977 49.2625 50.1977 50.2C50.1977 51.1625 49.9832 52.0188 49.5544 52.7688C49.1382 53.5063 48.5529 54.0813 47.7961 54.4938C47.0394 54.9063 46.1691 55.1125 45.1852 55.1125C43.5329 55.1125 42.2527 54.5375 41.3446 53.3875C40.4364 52.2375 39.9823 50.65 39.9823 48.625C39.9823 46.5125 40.386 44.8937 41.1932 43.7687C42.013 42.6437 43.287 41.8813 45.015 41.4813L49.48 40.4688L49.707 41.6875L45.5069 42.6438C44.0816 42.9563 43.0347 43.5125 42.3662 44.3125C41.6977 45.1 41.3319 46.2688 41.2689 47.8188C41.6725 47.0563 42.2325 46.4625 42.9515 46.0375C43.6704 45.6 44.4978 45.3813 45.4312 45.3813H45.4299ZM45.2218 54.0063C45.9155 54.0063 46.5336 53.85 47.0759 53.5375C47.6309 53.2125 48.0597 52.7625 48.3625 52.1875C48.6778 51.6125 48.8354 50.9625 48.8354 50.2375C48.8354 49.5125 48.6841 48.875 48.3814 48.325C48.0787 47.775 47.6498 47.35 47.0948 47.05C46.5525 46.7375 45.9281 46.5812 45.2218 46.5812C44.5155 46.5812 43.8848 46.7375 43.3298 47.05C42.7875 47.35 42.3586 47.775 42.0433 48.325C41.7406 48.875 41.5892 49.5125 41.5892 50.2375C41.5892 50.9625 41.7406 51.6125 42.0433 52.1875C42.3586 52.7625 42.7951 53.2125 43.3488 53.5375C43.9037 53.85 44.5281 54.0063 45.2218 54.0063ZM64.6371 45.0625C65.5705 45.0625 66.4155 45.275 67.1723 45.7C67.9291 46.1125 68.5219 46.7 68.9508 47.4625C69.3796 48.225 69.594 49.0938 69.594 50.0688C69.594 51.0563 69.3796 51.9312 68.9508 52.6937C68.5219 53.4563 67.9291 54.05 67.1723 54.475C66.4282 54.8875 65.5831 55.0938 64.6371 55.0938C63.8299 55.0938 63.0983 54.9313 62.4424 54.6063C61.7992 54.2688 61.2694 53.7813 60.8532 53.1438V58.6375H59.5099V45.1375H60.7964V47.0875C61.2 46.4375 61.7298 45.9375 62.3857 45.5875C63.0542 45.2375 63.8046 45.0625 64.6371 45.0625ZM64.5425 53.9125C65.2362 53.9125 65.8669 53.7563 66.4345 53.4438C67.0021 53.1188 67.4435 52.6625 67.7588 52.075C68.0868 51.4875 68.2507 50.8188 68.2507 50.0688C68.2507 49.3188 68.0868 48.6563 67.7588 48.0813C67.4435 47.4938 67.0021 47.0375 66.4345 46.7125C65.8669 46.3875 65.2362 46.225 64.5425 46.225C63.8362 46.225 63.1992 46.3875 62.6316 46.7125C62.0766 47.0375 61.6352 47.4938 61.3072 48.0813C60.9919 48.6563 60.8343 49.3188 60.8343 50.0688C60.8343 50.8188 60.9919 51.4875 61.3072 52.075C61.6352 52.6625 62.0766 53.1188 62.6316 53.4438C63.1992 53.7563 63.8362 53.9125 64.5425 53.9125ZM78.9126 45.1375H80.2559V52.975L86.8966 45.1375H88.0886V55H86.7453V47.1625L80.1234 55H78.9126V45.1375ZM101.986 50.6125H99.7153V55H98.372V45.1375H99.7153V49.4688H102.005L105.505 45.1375H106.962L103.045 49.9188L107.245 55H105.656L101.986 50.6125ZM119.037 45.0625C120.336 45.0625 121.333 45.3875 122.027 46.0375C122.72 46.675 123.067 47.625 123.067 48.8875V55H121.781V53.4625C121.478 53.975 121.03 54.375 120.437 54.6625C119.857 54.95 119.163 55.0938 118.356 55.0938C117.246 55.0938 116.363 54.8313 115.707 54.3063C115.052 53.7813 114.724 53.0875 114.724 52.225C114.724 51.3875 115.026 50.7125 115.632 50.2C116.25 49.6875 117.227 49.4312 118.564 49.4312H121.724V48.8312C121.724 47.9812 121.484 47.3375 121.005 46.9C120.526 46.45 119.826 46.225 118.905 46.225C118.274 46.225 117.669 46.3313 117.089 46.5438C116.508 46.7438 116.01 47.025 115.594 47.3875L114.988 46.3938C115.493 45.9688 116.098 45.6437 116.805 45.4187C117.511 45.1812 118.255 45.0625 119.037 45.0625ZM118.563 54.0438C119.32 54.0438 119.969 53.875 120.512 53.5375C121.054 53.1875 121.458 52.6875 121.723 52.0375V50.425H118.601C116.898 50.425 116.047 51.0125 116.047 52.1875C116.047 52.7625 116.267 53.2188 116.709 53.5563C117.15 53.8813 117.768 54.0438 118.563 54.0438ZM155.584 45.1375V55H154.354V47.2L150.324 53.8H149.719L145.689 47.1812V55H144.459V45.1375H145.821L150.04 52.2437L154.335 45.1375H155.584ZM174.541 50.4812H166.216C166.292 51.5062 166.689 52.3375 167.408 52.975C168.127 53.6 169.035 53.9125 170.133 53.9125C170.751 53.9125 171.318 53.8063 171.836 53.5938C172.353 53.3688 172.8 53.0438 173.179 52.6188L173.936 53.4813C173.494 54.0063 172.939 54.4062 172.271 54.6812C171.615 54.9563 170.89 55.0938 170.095 55.0938C169.073 55.0938 168.165 54.8812 167.371 54.4562C166.604 54.034 165.969 53.4114 165.535 52.6563C165.094 51.8938 164.873 51.0313 164.873 50.0688C164.873 49.1063 165.081 48.2438 165.497 47.4813C165.926 46.7188 166.507 46.125 167.238 45.7C167.982 45.275 168.815 45.0625 169.735 45.0625C170.656 45.0625 171.482 45.275 172.214 45.7C172.945 46.125 173.519 46.7188 173.936 47.4813C174.352 48.2313 174.56 49.0938 174.56 50.0688L174.541 50.4812ZM169.735 46.2063C168.777 46.2063 167.97 46.5125 167.314 47.125C166.67 47.725 166.305 48.5125 166.216 49.4875H173.273C173.185 48.5125 172.813 47.725 172.157 47.125C171.514 46.5125 170.707 46.2063 169.735 46.2063ZM188.791 45.3813C189.712 45.3813 190.532 45.5875 191.251 46C191.982 46.4 192.55 46.9688 192.954 47.7063C193.357 48.4313 193.559 49.2625 193.559 50.2C193.559 51.1625 193.345 52.0188 192.916 52.7688C192.5 53.5063 191.913 54.0813 191.156 54.4938C190.399 54.9063 189.529 55.1125 188.545 55.1125C186.893 55.1125 185.613 54.5375 184.705 53.3875C183.797 52.2375 183.342 50.65 183.342 48.625C183.342 46.5125 183.746 44.8937 184.553 43.7687C185.373 42.6437 186.647 41.8813 188.375 41.4813L192.84 40.4688L193.067 41.6875L188.867 42.6438C187.442 42.9563 186.395 43.5125 185.726 44.3125C185.058 45.1 184.692 46.2688 184.629 47.8188C185.033 47.0563 185.594 46.4625 186.313 46.0375C187.032 45.6 187.858 45.3813 188.791 45.3813ZM188.583 54.0063C189.277 54.0063 189.895 53.85 190.437 53.5375C190.992 53.2125 191.421 52.7625 191.724 52.1875C192.039 51.6125 192.197 50.9625 192.197 50.2375C192.197 49.5125 192.045 48.875 191.743 48.325C191.44 47.775 191.011 47.35 190.456 47.05C189.914 46.7375 189.29 46.5812 188.583 46.5812C187.877 46.5812 187.246 46.7375 186.691 47.05C186.149 47.35 185.72 47.775 185.405 48.325C185.102 48.875 184.951 49.5125 184.951 50.2375C184.951 50.9625 185.102 51.6125 185.405 52.1875C185.72 52.7625 186.155 53.2125 186.71 53.5375C187.265 53.85 187.889 54.0063 188.583 54.0063ZM211.574 50.4812H203.25C203.325 51.5062 203.723 52.3375 204.442 52.975C205.161 53.6 206.069 53.9125 207.166 53.9125C207.784 53.9125 208.352 53.8063 208.869 53.5938C209.386 53.3688 209.834 53.0438 210.212 52.6188L210.969 53.4813C210.527 54.0063 209.972 54.4062 209.304 54.6812C208.648 54.9563 207.923 55.0938 207.128 55.0938C206.106 55.0938 205.198 54.8812 204.404 54.4562C203.637 54.034 203.003 53.4114 202.569 52.6563C202.127 51.8938 201.906 51.0313 201.906 50.0688C201.906 49.1063 202.114 48.2438 202.531 47.4813C202.96 46.7188 203.54 46.125 204.271 45.7C205.015 45.275 205.848 45.0625 206.769 45.0625C207.689 45.0625 208.516 45.275 209.247 45.7C209.979 46.125 210.553 46.7188 210.969 47.4813C211.385 48.2313 211.593 49.0938 211.593 50.0688L211.574 50.4812ZM206.769 46.2063C205.81 46.2063 205.003 46.5125 204.347 47.125C203.704 47.725 203.338 48.5125 203.25 49.4875H210.307C210.218 48.5125 209.846 47.725 209.19 47.125C208.547 46.5125 207.74 46.2063 206.769 46.2063ZM228.931 45.1375V55H227.588V46.3188H222.82L222.688 48.7563C222.587 50.8063 222.347 52.3813 221.969 53.4813C221.59 54.5813 220.916 55.1313 219.944 55.1313C219.679 55.1313 219.358 55.0813 218.979 54.9813L219.074 53.8375C219.301 53.8875 219.459 53.9125 219.547 53.9125C220.064 53.9125 220.455 53.675 220.72 53.2C220.985 52.725 221.161 52.1375 221.25 51.4375C221.338 50.7375 221.414 49.8125 221.477 48.6625L221.647 45.1375H228.931ZM239.182 45.1375H240.525V52.975L247.166 45.1375H248.358V55H247.014V47.1625L240.393 55H239.182V45.1375Z" fill="#202020"/>
<path fill-rule="evenodd" clip-rule="evenodd" d="M68.8688 0H91.8246V22.75H63.5713V8.75H86.5271V5.25H68.8688V0ZM86.5271 14H68.8688V17.5H86.5271V14ZM180.116 0H157.16V5.25H174.819V8.75H151.863V22.75H180.116V0ZM157.16 14H174.819V17.5H157.16V14ZM183.648 0H211.901V14H188.945V22.75H183.648V0ZM188.945 5.25H206.603V8.75H188.945V5.25Z" fill="#202020"/>
<path d="M123.609 0H118.312V8.75H100.653V0H95.356V22.75H100.653V14H118.312V22.75H123.609V0ZM127.141 0H151.862V5.25H132.438V22.75H127.141V0Z" fill="#202020"/>
<path fill-rule="evenodd" clip-rule="evenodd" d="M54.7419 0H31.7861V22.75H60.0394V8.75H54.7419V0ZM37.0836 14H54.7419V17.5H37.0836V14ZM49.4444 5.25H37.0836V8.75H49.4444V5.25ZM215.432 0H243.686V17.5H247.217V22.75H211.901V17.5H215.432V0V0ZM220.73 5.25H238.388V17.5H220.73V5.25Z" fill="#202020"/>
<path fill-rule="evenodd" clip-rule="evenodd" d="M5.29749 0H28.2533V22.75H0V8.75H22.9558V5.25H5.29749V0ZM22.9558 14H5.29749V17.5H22.9558V14Z" fill="#EE1D24"/>
</g>
<defs>
<clipPath id="clip0_30_238">
<rect width="251" height="60" fill="white"/>
</clipPath>
</defs>
</svg>
