<svg width="199" height="48" viewBox="0 0 199 48" fill="none" xmlns="http://www.w3.org/2000/svg">
<path d="M11.0002 40C11.0002 41.2 10.6002 42.2 9.8002 42.9C9.0002 43.6 7.8002 44 6.4002 44V46.8H5.4002V44C3.9002 44 2.7002 43.7 1.9002 43C1.1002 42.3 0.700195 41.3 0.700195 40.1C0.700195 38.9 1.1002 37.9 1.9002 37.2C2.7002 36.5 3.9002 36.1 5.3002 36.1V32.9H6.3002V36C7.8002 36.1 8.9002 36.5 9.7002 37.1C10.5002 37.7 11.0002 38.8 11.0002 40ZM1.8002 40C1.8002 40.9 2.1002 41.7 2.7002 42.2C3.3002 42.7 4.2002 43 5.4002 43.1V37C4.2002 37.1 3.4002 37.4 2.7002 37.9C2.1002 38.4 1.8002 39.1 1.8002 40ZM6.4002 43.1C7.6002 43 8.5002 42.7 9.1002 42.2C9.7002 41.7 10.0002 41 10.0002 40C10.0002 39.1 9.7002 38.3 9.1002 37.8C8.5002 37.3 7.6002 37 6.4002 36.9C6.4002 37 6.4002 43.1 6.4002 43.1ZM21.1002 36C22.1002 36 22.9002 36.3 23.5002 36.8C24.0002 37.3 24.3002 38.1 24.3002 39.1V44H23.3002V42.8C23.1002 43.2 22.7002 43.5 22.2002 43.8C21.7002 44 21.2002 44.1 20.6002 44.1C19.7002 44.1 19.0002 43.9 18.5002 43.5C18.0002 43.1 17.7002 42.5 17.7002 41.8C17.7002 41.1 17.9002 40.6 18.4002 40.2C18.9002 39.8 19.7002 39.6 20.7002 39.6H23.2002V39.1C23.2002 38.4 23.0002 37.9 22.6002 37.6C22.2002 37.2 21.7002 37 21.0002 37C20.5002 37 20.0002 37.1 19.6002 37.3C19.1002 37.5 18.7002 37.7 18.4002 38L17.9002 37.2C18.3002 36.9 18.8002 36.6 19.3002 36.4C19.9002 36.1 20.4002 36.1 21.1002 36ZM20.7002 43.2C21.3002 43.2 21.8002 43.1 22.2002 42.8C22.6002 42.5 23.0002 42.1 23.2002 41.6V40.3H20.7002C19.3002 40.3 18.7002 40.8 18.7002 41.7C18.7002 42.2 18.9002 42.5 19.2002 42.8C19.6002 43.1 20.1002 43.2 20.7002 43.2ZM36.0002 36.3C36.7002 36.3 37.4002 36.5 38.0002 36.8C38.6002 37.1 39.0002 37.6 39.3002 38.2C39.6002 38.8 39.8002 39.4 39.8002 40.2C39.8002 41 39.6002 41.7 39.3002 42.3C39.0002 42.9 38.5002 43.3 37.9002 43.7C37.3002 44 36.6002 44.2 35.8002 44.2C34.5002 44.2 33.5002 43.7 32.8002 42.8C32.1002 41.9 31.7002 40.6 31.7002 39C31.7002 37.3 32.0002 36 32.7002 35.1C33.4002 34.2 34.4002 33.6 35.7002 33.3L39.2002 32.5L39.4002 33.5L36.1002 34.3C35.0002 34.6 34.1002 35 33.6002 35.6C33.1002 36.2 32.8002 37.2 32.7002 38.4C33.0002 37.8 33.5002 37.3 34.0002 37C34.6002 36.5 35.3002 36.3 36.0002 36.3ZM35.9002 43.2C36.4002 43.2 36.9002 43.1 37.4002 42.8C37.8002 42.5 38.2002 42.2 38.4002 41.7C38.7002 41.2 38.8002 40.7 38.8002 40.1C38.8002 39.5 38.7002 39 38.4002 38.6C38.1002 38.2 37.8002 37.8 37.4002 37.6C37.0002 37.3 36.5002 37.2 35.9002 37.2C35.3002 37.2 34.8002 37.3 34.4002 37.6C34.0002 37.8 33.6002 38.2 33.4002 38.6C33.2002 39 33.0002 39.6 33.0002 40.1C33.0002 40.7 33.1002 41.2 33.4002 41.7C33.7002 42.2 34.0002 42.5 34.4002 42.8C34.8002 43.1 35.3002 43.2 35.9002 43.2ZM51.2002 36.1C51.9002 36.1 52.6002 36.3 53.2002 36.6C53.8002 36.9 54.3002 37.4 54.6002 38C54.9002 38.6 55.1002 39.3 55.1002 40.1C55.1002 40.9 54.9002 41.6 54.6002 42.2C54.3002 42.8 53.8002 43.3 53.2002 43.6C52.6002 43.9 51.9002 44.1 51.2002 44.1C50.6002 44.1 50.0002 44 49.5002 43.7C49.0002 43.4 48.6002 43 48.2002 42.5V46.9H47.1002V36.1H48.1002V37.7C48.4002 37.2 48.8002 36.8 49.4002 36.5C50.0002 36.2 50.6002 36.1 51.2002 36.1ZM51.2002 43.1C51.7002 43.1 52.2002 43 52.7002 42.7C53.2002 42.4 53.5002 42.1 53.7002 41.6C54.0002 41.1 54.1002 40.6 54.1002 40C54.1002 39.4 54.0002 38.9 53.7002 38.4C53.4002 37.9 53.1002 37.6 52.7002 37.3C52.2002 37 51.7002 36.9 51.2002 36.9C50.6002 36.9 50.1002 37 49.7002 37.3C49.3002 37.6 48.9002 37.9 48.7002 38.4C48.4002 38.9 48.3002 39.4 48.3002 40C48.3002 40.6 48.4002 41.1 48.7002 41.6C49.0002 42.1 49.3002 42.4 49.7002 42.7C50.1002 43 50.6002 43.1 51.2002 43.1ZM62.6002 36.1H63.7002V42.4L69.0002 36.1H69.9002V44H68.8002V37.7L63.5002 44H62.5002C62.6002 44 62.6002 36.1 62.6002 36.1ZM80.9002 40.5H79.1002V44H78.0002V36.1H79.1002V39.6H80.9002L83.7002 36.1H84.9002L81.8002 39.9L85.0002 44H83.7002C83.8002 44 80.9002 40.5 80.9002 40.5ZM94.4002 36.1C95.4002 36.1 96.2002 36.4 96.8002 36.9C97.4002 37.4 97.6002 38.2 97.6002 39.2V44H96.6002V42.8C96.4002 43.2 96.0002 43.5 95.5002 43.8C95.0002 44 94.5002 44.1 93.8002 44.1C92.9002 44.1 92.2002 43.9 91.7002 43.5C91.2002 43.1 90.9002 42.5 90.9002 41.8C90.9002 41.1 91.1002 40.6 91.6002 40.2C92.1002 39.8 92.9002 39.6 93.9002 39.6H96.4002V39.1C96.4002 38.4 96.2002 37.9 95.8002 37.6C95.6002 37.2 95.0002 37 94.3002 37C93.8002 37 93.3002 37.1 92.9002 37.3C92.4002 37.5 92.0002 37.7 91.7002 38L91.2002 37.2C91.6002 36.9 92.1002 36.6 92.6002 36.4C93.2002 36.1 93.8002 36.1 94.4002 36.1ZM94.0002 43.2C94.6002 43.2 95.1002 43.1 95.5002 42.8C95.9002 42.5 96.3002 42.1 96.5002 41.6V40.3H94.0002C92.7002 40.3 92.0002 40.8 92.0002 41.7C92.0002 42.2 92.2002 42.5 92.5002 42.8C92.9002 43.1 93.4002 43.2 94.0002 43.2ZM123.4 36.1V44H122.4V37.8L119.2 43.1H118.7L115.5 37.8V44H114.5V36.1H115.6L118.9 41.8L122.3 36.1H123.4ZM138.4 40.4H131.8C131.9 41.2 132.2 41.9 132.7 42.4C133.3 42.9 134 43.2 134.9 43.2C135.4 43.2 135.8 43.1 136.3 42.9C136.7 42.7 137.1 42.5 137.4 42.1L138 42.8C137.6 43.2 137.2 43.5 136.7 43.8C136.2 44 135.6 44.1 135 44.1C134.2 44.1 133.5 43.9 132.8 43.6C132.2 43.3 131.7 42.8 131.3 42.2C130.9 41.6 130.8 40.9 130.8 40.1C130.8 39.3 131 38.6 131.3 38C131.6 37.4 132.1 36.9 132.7 36.6C133.3 36.3 134 36.1 134.7 36.1C135.4 36.1 136.1 36.3 136.7 36.6C137.3 36.9 137.7 37.4 138.1 38C138.4 38.6 138.6 39.3 138.6 40.1C138.4 40.1 138.4 40.4 138.4 40.4ZM134.6 37C133.8 37 133.2 37.2 132.7 37.7C132.2 38.2 131.9 38.8 131.8 39.6H137.4C137.3 38.8 137 38.2 136.5 37.7C136 37.2 135.3 37 134.6 37ZM149.7 36.3C150.4 36.3 151.1 36.5 151.6 36.8C152.2 37.1 152.6 37.6 153 38.2C153.3 38.8 153.5 39.4 153.5 40.2C153.5 41 153.3 41.7 153 42.3C152.7 42.9 152.2 43.3 151.6 43.7C151 44.1 150.3 44.2 149.5 44.2C148.2 44.2 147.2 43.7 146.5 42.8C145.8 41.9 145.4 40.6 145.4 39C145.4 37.3 145.7 36 146.4 35.1C147 34.2 148.1 33.6 149.4 33.3L152.9 32.5L153.1 33.5L149.8 34.3C148.7 34.6 147.8 35 147.3 35.6C146.8 36.2 146.5 37.2 146.4 38.4C146.7 37.8 147.2 37.3 147.7 37C148.3 36.5 148.9 36.3 149.7 36.3ZM149.5 43.2C150.1 43.2 150.5 43.1 151 42.8C151.4 42.5 151.8 42.2 152 41.7C152.3 41.2 152.4 40.7 152.4 40.1C152.4 39.5 152.3 39 152 38.6C151.7 38.2 151.4 37.8 151 37.6C150.6 37.3 150.1 37.2 149.5 37.2C148.9 37.2 148.4 37.3 148 37.6C147.6 37.8 147.2 38.2 147 38.6C146.8 39 146.6 39.6 146.6 40.1C146.6 40.7 146.7 41.2 147 41.7C147.3 42.2 147.6 42.5 148 42.8C148.5 43.1 149 43.2 149.5 43.2ZM167.7 40.4H161.1C161.2 41.2 161.5 41.9 162 42.4C162.6 42.9 163.3 43.2 164.2 43.2C164.7 43.2 165.1 43.1 165.6 42.9C166 42.7 166.4 42.5 166.7 42.1L167.3 42.8C166.9 43.2 166.5 43.5 166 43.8C165.5 44 164.9 44.1 164.3 44.1C163.5 44.1 162.8 43.9 162.1 43.6C161.5 43.3 161 42.8 160.6 42.2C160.2 41.6 160.1 40.9 160.1 40.1C160.1 39.3 160.3 38.6 160.6 38C160.9 37.4 161.4 36.9 162 36.6C162.6 36.3 163.3 36.1 164 36.1C164.7 36.1 165.4 36.3 166 36.6C166.6 36.9 167 37.4 167.4 38C167.7 38.6 167.9 39.3 167.9 40.1C167.8 40.1 167.7 40.4 167.7 40.4ZM163.9 37C163.1 37 162.5 37.2 162 37.7C161.5 38.2 161.2 38.8 161.1 39.6H166.7C166.6 38.8 166.3 38.2 165.8 37.7C165.3 37.2 164.7 37 163.9 37ZM181.5 36.1V44H180.4V37.1H176.6L176.5 39.1C176.4 40.7 176.2 42 175.9 42.9C175.6 43.8 175.1 44.2 174.3 44.2C174.1 44.2 173.8 44.2 173.5 44.1L173.6 43.2C173.8 43.2 173.9 43.3 174 43.3C174.4 43.3 174.7 43.1 174.9 42.7C175.1 42.3 175.3 41.9 175.3 41.3C175.4 40.7 175.4 40 175.5 39.1L175.6 36.3L181.5 36.1ZM189.6 36.1H190.7V42.4L196 36.1H196.9V44H195.8V37.7L190.5 44H189.5L189.6 36.1Z" fill="white"/>
<path d="M54.5999 0V4.2H68.5999V7H50.3999V18.2H72.7999V0H54.5999ZM68.5999 14H54.5999V11.2H68.5999V14Z" fill="white"/>
<path d="M124.6 0V4.2H138.6V7H120.4V18.2H142.8V0H124.6ZM138.6 14H124.6V11.2H138.6V14Z" fill="white"/>
<path d="M145.6 0V18.2H149.8V11.2H168V0H145.6ZM163.8 7H149.8V4.2H163.8V7Z" fill="white"/>
<path d="M98.0001 0H93.8001V7H79.8001V0H75.6001V18.2H79.8001V11.2H93.8001V18.2H98.0001V0ZM100.8 0H120.4V4.2H105V18.2H100.8V0Z" fill="white"/>
<path d="M43.4002 7V0H25.2002V18.2H47.6002V7H43.4002ZM29.4002 4.2H39.2002V7H29.4002V4.2ZM43.4002 14H29.4002V11.2H43.4002V14Z" fill="white"/>
<path d="M193.2 14V0H170.8V14H168V18.2H196V14H193.2ZM189 14H175V4.2H189V14Z" fill="white"/>
<path d="M4.2 0H22.4V18.2H0V7H18.2V4.2H4.2V0ZM18.2 11.2H4.2V14H18.2V11.2Z" fill="#EE1D24"/>
</svg>
