<svg width="36" height="44" viewBox="0 0 36 44" fill="none" xmlns="http://www.w3.org/2000/svg">
<path d="M36 32.1818C36 38.5455 18 44 18 44C18 44 8 35 8 32.1818C8 30.0119 9.475 27.9308 12.1005 26.3964C14.726 24.862 18.287 24 22 24C25.713 24 29.274 24.862 31.8995 26.3964C34.525 27.9308 36 30.0119 36 32.1818Z" fill="url(#paint0_linear)"/>
<path d="M35.5 18C35.5 24.799 31.1171 31.1771 26.637 35.9061C24.4072 38.2598 22.1757 40.1816 20.501 41.5151C19.6641 42.1815 18.9673 42.7002 18.4807 43.0517C18.2848 43.1931 18.1231 43.3075 18 43.3934C17.8769 43.3075 17.7152 43.1931 17.5193 43.0517C17.0327 42.7002 16.3359 42.1815 15.499 41.5151C13.8243 40.1816 11.5928 38.2598 9.36298 35.9061C4.88287 31.1771 0.5 24.799 0.5 18C0.5 13.3587 2.34374 8.90752 5.62563 5.62563C8.90752 2.34374 13.3587 0.5 18 0.5C22.6413 0.5 27.0925 2.34374 30.3744 5.62563C33.6563 8.90752 35.5 13.3587 35.5 18Z" fill="#EE1D24" stroke="white" stroke-linecap="round" stroke-linejoin="round"/>
<path fill-rule="evenodd" clip-rule="evenodd" d="M12.2727 10H27V24H9V15.3846H23.625V13.2308H12.2727V10ZM23.625 18.6154H12.375V20.7692H23.625V18.6154Z" fill="white"/>
<defs>
<linearGradient id="paint0_linear" x1="22" y1="24" x2="22" y2="44" gradientUnits="userSpaceOnUse">
<stop offset="0.223958" stop-color="#303A40" stop-opacity="0"/>
<stop offset="1" stop-color="#303A40" stop-opacity="0.35"/>
</linearGradient>
</defs>
</svg>
